<svg xmlns="http://www.w3.org/2000/svg" viewBox="0 0 1600 400"><defs><style>.a,.bo{fill:#4298b4;}.ad,.b{fill:#7bb7ca;}.c{fill:#67acc3;}.d{fill:#b3d5e1;}.e{fill:#a0cbd9;}.bz,.f{fill:#8e7e73;}.cc,.g{fill:#74665b;}.bh,.h{fill:#2b8b62;}.ab,.i{fill:#47ad82;}.aa,.ae,.aw,.bv,.ec,.j,.m,.v{fill:#1d2432;}.bv,.j{opacity:0.2;}.k{fill:#f6f6f7;}.aa,.ab,.ac,.ad,.ae,.af,.ag,.ah,.ai,.aj,.ba,.bb,.bc,.bd,.be,.bf,.bg,.bh,.bi,.bj,.bk,.bl,.bm,.bn,.bo,.bp,.bq,.br,.bs,.bt,.bu,.bv,.bw,.bx,.by,.bz,.ca,.cb,.cc,.cd,.ce,.cf,.cg,.dc,.de,.df,.dg,.dh,.di,.dj,.dk,.dl,.dm,.dp,.dq,.dr,.ds,.dt,.du,.dv,.dw,.dx,.dy,.dz,.ea,.eb,.ec,.ed,.ee,.ef,.eg,.eh,.ei,.ej,.k,.l,.v{fill-rule:evenodd;}.l{fill:#fff;}.ae,.m,.v{opacity:0.05;}.dk,.n{fill:#787f8d;}.o{fill:#9a9fa9;}.p{fill:#cccfd4;}.bx,.q{fill:#68707f;}.ed,.r{fill:#89909b;}.s{fill:#abafb8;}.t{fill:#dddfe2;}.u{fill:#bbbfc6;}.w{fill:#33a474;}.x{fill:#70bf9d;}.ag,.y{fill:#86b264;}.z{fill:#a0cf7e;}.aa{opacity:0.05;}.aa,.ae{isolation:isolate;}.ac{fill:#8dc1d2;}.af,.cl{fill:#f4d75c;}.ah,.al{fill:#72cbcc;}.ai,.am{fill:#ecf4f7;}.aj,.cm{fill:#fff7ae;}.ak{fill:#3da87b;}.an,.bg{fill:#8a6651;}.ao,.bi{fill:#267a56;}.ap,.bk{fill:#84c8ab;}.aq,.ba{fill:#dfbda5;}.ar,.bb{fill:#c2977b;}.as,.bd{fill:#648e43;}.at,.bf{fill:#44622d;}.au,.be{fill:#5a753d;}.av{fill:#eeeff1;}.ax,.bj{fill:#e7c9b5;}.ay,.bl{fill:#b3889d;}.az,.bm{fill:#96637c;}.bc,.cj{fill:#709d52;}.bn{fill:#347990;}.bp{fill:#50a8a9;}.bq{fill:#369395;}.br{fill:#72cacb;}.bs{fill:#454d5d;}.bt{fill:#8bdfdb;}.bu,.da{fill:#3e90aa;}.bw{fill:#2e3544;}.by{fill:#1c7678;}.ca,.cu{fill:#aa822b;}.cb{fill:#5f5044;}.cd{fill:#886822;}.ce,.cv{fill:#c29431;}.cf,.cy{fill:#734d61;}.cg,.cz{fill:#d1a1b8;}.ch{fill:#f1d69c;}.ci{fill:#f6e6c4;}.ck{fill:#eece88;}.cn{fill:#359496;}.co{fill:#4fa9aa;}.cp{fill:#94d5d5;}.cq,.de{fill:#88619a;}.cr{fill:#9f80ae;}.cs{fill:#c3b0cc;}.ct,.ds{fill:#947125;}.cw{fill:#e4ae3a;}.cx,.dw{fill:#f4deb0;}.db{fill:#55a2bb;}.dc{fill:#5e436b;}.dd{fill:#493551;}.df{fill:#9471a4;}.dg{fill:#7a578a;}.dh{fill:#95637c;}.di{fill:#583f64;}.dj{fill:#3d4554;}.dl{fill:#b2879c;}.dm{fill:#d0a0b7;}.dn{fill:#734d60;}.do{fill:#735283;}.dp{fill:#543042;}.dq{fill:#2d9368;}.dr{fill:#7d5f1f;}.dt{fill:#9f7928;}.du{fill:#b68b2e;}.dv{fill:#d8a537;}.dx{fill:#cbac14;}.dy{fill:#e4c728;}.dz{fill:#755800;}.ea{fill:#9d7700;}.eb{fill:#846400;}.ee{fill:#51596a;}.ef{fill:#f3d65d;}.eg{fill:#bb8e2d;}.eh{fill:#f9eed7;}.ei{fill:#beda8d;}.ej{fill:#9fce7e;}</style></defs><rect class="a" width="1600" height="400"/><polygon class="b" points="1529.34 210.82 1466.5 124.47 1398.15 112.09 1357.91 133.85 1357.91 133.85 1323.51 118.63 1311.28 107.52 1289.39 57.87 1273.51 68.69 1231.71 74.99 1215.83 73.12 1197.36 65.67 1173.68 59.25 1153.36 49.72 1147.01 25.48 1130.74 18.95 1091.78 14.79 1021.71 60.54 1002.12 63.78 977.78 51.17 919.51 94.59 909.54 103.23 957.76 140.92 1150.03 137.83 1416.74 188.98 1414.97 186.01 1529.34 210.82"/><polygon class="c" points="983.94 56.13 991.73 75.53 1000.84 77.81 1021.71 60.54 1004.56 56.88 983.94 56.13"/><polygon class="c" points="1147.01 25.48 1111.07 48.34 1148.45 91.38 1130.36 117 1189.52 110.2 1173.68 59.25 1147.01 25.48"/><polygon class="c" points="1231.71 74.99 1207.76 81.57 1197.36 65.67 1231.71 74.99"/><polygon class="c" points="1289.39 57.87 1301.09 97.64 1234.45 129.29 1304.53 153.19 1323.51 118.63 1289.39 57.87"/><polygon class="d" points="1092.31 3.55 1021.71 60.54 1046.02 55.36 1057.01 62.21 1096.66 28.96 1119.36 34.32 1130.74 18.95 1092.31 3.55"/><polygon class="d" points="1057.01 62.21 1026.42 73.12 1002.12 102.5 1031.62 86.09 1053.68 88.48 1040.69 77.17 1057.01 62.21"/><polygon class="d" points="977.78 51.17 939.87 78.03 954.66 84.52 977.78 72.94 990.68 86.22 985.79 63.4 977.78 51.17"/><polygon class="e" points="990.68 86.22 1000.84 77.81 991.73 63.78 1004.56 56.88 977.78 51.17 990.68 86.22"/><polygon class="c" points="1393.2 149.45 1352.29 179.19 1420.19 190.57 1393.2 149.45"/><polygon class="d" points="1289.39 57.87 1296.06 80.57 1271.16 84.45 1265.85 80.57 1268.92 73.62 1240.99 78.93 1231.71 74.99 1289.39 57.87"/><polygon class="d" points="1226.02 87.53 1231.54 93.71 1252.11 94.1 1215.04 106.4 1226.02 87.53"/><polygon class="b" points="761.1 110.75 716.05 73.28 697.24 78.88 671.48 79.45 654.05 77.4 643.92 69.89 530.05 30.37 515.22 23.76 510.2 10.92 460.13 23.75 427.64 58.88 333.9 76.28 305.08 87.98 263.6 118.79 173.52 135.24 79.64 203.3 497.54 151.28 693.3 132.92 761.1 110.75"/><polygon class="c" points="510.2 10.92 481.39 50.27 501.03 79.46 513.52 60.65 504.82 42.74 530.05 30.37 510.2 10.92"/><polygon class="c" points="346.33 98.89 253.46 154.37 339.35 148.03 388.25 130.75 427.64 74.4 377.27 100.24 346.33 98.89"/><polygon class="c" points="671.48 79.45 637.61 103.53 594.64 89.61 643.92 69.89 671.48 79.45"/><polygon class="c" points="716.05 73.28 682.41 104.85 659.34 111.73 623.71 129.78 697.09 135.9 769.15 112.11 716.05 73.28"/><polygon class="d" points="716.05 73.28 671.48 79.45 681.43 85.25 673.38 94.73 702.47 86.02 712.28 82.94 716.05 73.28"/><polygon class="e" points="716.05 73.28 765.49 108.49 744.81 114.53 724.32 94.49 714.94 99.61 702.47 86.02 716.05 73.28"/><polygon class="d" points="458.13 21.75 427.64 58.88 456.06 50.27 452.4 40.8 464.28 30.37 470.8 38.36 510.2 10.92 458.13 21.75"/><polygon class="d" points="330.9 73.28 427.64 58.88 404.17 72.49 361.75 81.17 343.64 79.45 321.43 95.92 305.08 87.98 330.9 73.28"/><polygon class="d" points="323.72 112.45 314.34 110.75 300.27 109.43 281.39 135.9 293.64 135.42 323.72 112.45"/><polygon class="d" points="448.49 77.28 439.04 66.88 429.12 96.72 464.57 78.09 448.49 77.28"/><polygon class="c" points="1466.5 124.47 1444.94 152.99 1376.38 165.99 1533.17 201.3 1466.5 124.47"/><polygon class="d" points="1398.15 109.09 1466.5 124.47 1402.33 131.93 1384.24 125 1357.91 133.85 1398.15 109.09"/><polygon class="f" points="1103.13 102.5 1110.54 100.26 1109.89 98.52 1102.88 99.97 1103.13 102.5"/><polygon class="g" points="1103.66 85.64 1103.95 112.39 1102.51 112.32 1100.91 85.14 1103.66 85.64"/><polygon class="f" points="1102.03 88.22 1102.51 112.32 1100.69 112.23 1100.42 84.61 1102.03 88.22"/><polygon class="h" points="1102.13 93.18 1124.96 82.52 1108.2 67.67 1102.04 62.21 1095.64 76.94 1102.13 93.18"/><polygon class="i" points="1095.3 63.77 1090.64 69.56 1076.36 87.32 1102.13 93.18 1099.64 71.28 1095.3 63.77"/><polygon class="j" points="1090.64 69.56 1100.48 78.2 1108.2 67.67 1090.64 69.56"/><polygon class="i" points="1095.4 48.34 1091.43 52.89 1079.95 67.52 1099.64 71.28 1103.83 62.97 1095.4 48.34"/><polygon class="h" points="1096.26 54.45 1099.64 71.28 1116.81 64.04 1100.54 51.47 1097.65 49.8 1096.26 54.45"/><polygon class="j" points="1091.24 53.13 1097.22 59.25 1100.54 51.47 1091.24 53.13"/><polygon class="h" points="1090.7 24.09 1091.07 50.6 1096.26 54.45 1105.13 48.27 1090.7 24.09"/><polygon class="i" points="1090.7 24.09 1082.88 50.94 1096.26 54.45 1090.7 24.09"/><polygon class="f" points="1133.29 103.34 1130.14 113.7 1128.42 113.62 1131.21 98.22 1133.29 103.34"/><polygon class="g" points="1134.57 101.78 1132.04 113.8 1130.14 113.7 1132.37 104.42 1133.14 99.16 1134.57 101.78"/><polygon class="h" points="1141.55 77.81 1144.07 82.06 1154.37 99.38 1132.37 104.42 1134.21 81.93 1141.55 77.81"/><polygon class="i" points="1134.95 74.99 1130.66 78.93 1117.16 96.04 1132.37 104.42 1136.65 83.96 1134.95 74.99"/><polygon class="j" points="1130.66 78.93 1135.37 90.11 1144.07 82.06 1130.66 78.93"/><polygon class="h" points="1146.1 63.78 1150.85 80.04 1136.65 83.96 1140.7 64.77 1146.1 63.78"/><polygon class="i" points="1142.37 57.87 1125.03 74.16 1136.65 83.96 1141.59 66.03 1142.37 57.87"/><polygon class="j" points="1137.21 62.72 1139.99 71.84 1146.1 63.78 1137.21 62.72"/><polygon class="i" points="1132.96 59.5 1142.96 40.09 1145.51 56.84 1141.59 66.03 1132.96 59.5"/><polygon class="h" points="1142.96 40.09 1150.61 61.54 1141.59 66.03 1142.96 40.09"/><polygon class="h" points="472.94 93.5 479.39 95.4 492.4 115.72 468.64 118.79 469.1 100.62 472.94 93.5"/><polygon class="i" points="448.49 113.62 465.22 94.87 472.94 93.5 471.88 97.51 468.64 118.79 448.49 113.62"/><polygon class="j" points="465.22 94.87 471.31 103.08 479.39 95.4 465.22 94.87"/><polygon class="h" points="471.88 97.51 487.74 93.06 479.13 81.19 474.48 80.14 470.51 91.53 471.88 97.51"/><polygon class="i" points="457.83 91.94 471.88 97.51 474.48 80.14 468.64 80.19 457.83 91.94"/><polygon class="j" points="468.64 80.19 473.48 86.79 479.13 81.19 468.64 80.19"/><polygon class="h" points="475.51 56.54 484.02 79.46 474.05 82.98 471.81 74.5 475.51 56.54"/><polygon class="i" points="475.51 56.54 464.57 78.09 474.05 82.98 475.51 56.54"/><polygon class="g" points="1319.32 142.04 1321.13 133.3 1323.59 131.67 1320.69 142.39 1319.32 142.04"/><polygon class="f" points="1321.74 133.91 1319.32 142.04 1318.26 141.84 1320.44 130.56 1321.74 133.91"/><polygon class="h" points="1332.18 117.09 1338.66 129.91 1321.74 133.91 1321.97 120.96 1325.11 112.69 1332.18 117.09"/><polygon class="i" points="1320.85 110.64 1317.03 113.23 1299.96 119.94 1321.74 133.91 1324.91 117.52 1320.85 110.64"/><polygon class="j" points="1317.03 113.23 1323.55 124.58 1332.18 117.09 1317.03 113.23"/><polygon class="h" points="1332.88 98.54 1334.77 102.62 1339.43 116.65 1324.91 117.52 1325.48 104.07 1332.88 98.54"/><polygon class="i" points="1326.54 97.78 1324.36 98.48 1308.7 108.7 1324.91 117.52 1328.8 104.15 1326.54 97.78"/><polygon class="j" points="1324.36 98.48 1327.15 109.82 1334.77 102.62 1324.36 98.48"/><polygon class="h" points="1338.56 80.3 1339.48 101.27 1328.8 104.15 1328.31 94.1 1338.56 80.3"/><polygon class="i" points="1321.2 94.46 1338.56 80.3 1328.8 104.15 1321.2 94.46"/><polygon class="h" points="201.1 131.67 212.79 131.16 230.21 161.06 199.18 170.29 196.12 155.72 201.1 131.67"/><polygon class="i" points="163.38 172.88 186.88 135.88 201.1 131.67 200.86 136.56 199.18 170.29 163.38 172.88"/><polygon class="j" points="186.74 135.88 200.51 143.57 212.79 131.16 186.74 135.88"/><polygon class="h" points="196.69 99.95 224.27 125.97 200.86 136.56 196.12 124.58 196.69 99.95"/><polygon class="i" points="173.52 135.24 200.86 136.56 196.69 99.95 173.52 135.24"/><polygon class="j" points="191.32 108.14 198.7 117.59 203.57 106.74 191.32 108.14"/><polygon class="h" points="198.42 78.14 211.44 101.96 197.86 110.21 196.88 93.06 198.42 78.14"/><polygon class="i" points="198.42 78.14 182.24 105.27 197.86 110.21 198.42 78.14"/><polygon class="h" points="1393.03 142.26 1398.18 145.41 1414.88 167.38 1393.24 165.96 1388.51 157.05 1393.03 142.26"/><polygon class="i" points="1371.54 159.14 1387.47 144.2 1393.03 142.26 1393.24 165.96 1371.54 159.14"/><polygon class="j" points="1387.47 144.2 1393.11 151.47 1398.35 145.65 1387.47 144.2"/><polygon class="h" points="1394.97 130.96 1398.57 133.55 1406.64 143.58 1393.07 146.97 1392.84 139.98 1394.97 130.96"/><polygon class="i" points="1381.52 141.26 1393.07 146.97 1394.97 130.96 1391.11 133.63 1381.52 141.26"/><polygon class="j" points="1391.11 133.63 1394.1 138.25 1398.57 133.55 1391.11 133.63"/><polygon class="h" points="1394.69 118.69 1402.33 131.93 1394.45 135.31 1393.96 129.22 1394.69 118.69"/><polygon class="i" points="1394.69 118.69 1387.69 131.9 1394.45 135.31 1394.69 118.69"/><polygon class="k" points="806.18 80.57 693.83 120.95 451.96 110.61 0 207.51 0 400 1600 400 1600 213.31 1177 106.26 988.66 118.18 806.18 80.57"/><polygon class="l" points="0 235.36 439.81 191.84 530.91 138.75 682.68 150.7 819.11 104.87 969.38 155.28 1168.57 152.89 1600 235.36 1600 400 0 400 0 235.36"/><polygon class="m" points="1258.89 206.79 1240.47 214.67 1271.1 221.56 1286.31 210.84 1258.89 206.79"/><polygon class="m" points="930.28 125.95 946.38 132.55 974.64 127.68 947.17 121.55 930.28 125.95"/><polygon class="g" points="947.38 100.89 949.11 128.85 947.17 129.29 943.66 101.79 947.38 100.89"/><polygon class="f" points="945.1 106.4 947.17 129.29 945.19 128.3 942.36 99.85 945.1 106.4"/><polygon class="h" points="945.1 106.4 971.41 93.94 954.66 75.53 949.53 69.89 939.87 78.03 945.1 106.4"/><polygon class="i" points="940.37 67.78 933.94 76.23 919.51 94.59 945.1 106.4 946.08 79.72 940.37 67.78"/><polygon class="j" points="933.94 76.23 945.7 90.04 954.66 75.53 933.94 76.23"/><polygon class="h" points="947.35 49.72 950.1 53.58 962.89 71.51 946.08 79.72 942.87 53.46 947.35 49.72"/><polygon class="i" points="941.27 51.17 938.45 54.59 923.18 73.13 946.08 79.72 945.15 56.13 941.27 51.17"/><polygon class="j" points="938.45 54.59 945.41 62.87 950.1 53.58 938.45 54.59"/><polygon class="h" points="941.46 25.48 955.09 51.02 945.15 56.13 941.71 45.76 941.46 25.48"/><polygon class="i" points="941.46 25.48 932.63 53.25 945.15 56.13 941.46 25.48"/><polygon class="m" points="501.21 145.56 510.81 136.86 526.85 135.57 551.41 140.36 510.91 150.4 501.21 145.56"/><polygon class="f" points="515.68 131.02 509.21 128.44 510.07 127.13 516.87 129.26 515.68 131.02"/><polygon class="g" points="524.71 104.85 518.18 144.83 516.26 145.56 520.43 108.73 524.71 104.85"/><polygon class="f" points="521.26 110.75 516.26 145.56 514.48 144.37 519.36 104.48 521.26 110.75"/><polygon class="h" points="537.29 72 556.15 104.22 521.26 110.75 523.31 75.94 527.04 67.7 537.29 72"/><polygon class="i" points="528.54 65.02 523.53 69.32 495.07 94.02 521.26 110.75 528.09 73.28 528.54 65.02"/><polygon class="j" points="523.53 69.32 526.06 84.41 537.29 72 523.53 69.32"/><polygon class="h" points="546.57 47.23 553.69 69.72 528.09 73.28 537.9 44.49 546.57 47.23"/><polygon class="i" points="540.9 41.43 535.6 45.15 513.52 60.65 528.09 73.28 540.54 48.76 540.9 41.43"/><polygon class="j" points="535.6 45.15 538.34 53.1 546.57 47.23 535.6 45.15"/><polygon class="h" points="545.26 21.75 554.16 45.32 540.54 48.76 540.39 35.26 545.26 21.75"/><polygon class="i" points="545.26 21.75 528.54 39.99 540.54 48.76 545.26 21.75"/><polygon class="g" points="348.94 119.33 347.76 126.13 350.98 143.87 352.55 142.53 351.83 112.45 348.94 119.33"/><polygon class="f" points="348.94 119.33 350.98 143.87 347.58 142.21 344.55 108.13 348.94 119.33"/><polygon class="h" points="348.94 119.33 377.27 100.24 343.53 64.98 339.35 69.84 348.94 119.33"/><polygon class="i" points="330.2 76.3 307.45 120.11 348.94 119.33 343.53 79.45 337.5 71.73 330.2 76.3"/><polygon class="j" points="330.2 76.3 345.26 92.16 352.55 74.4 330.2 76.3"/><polygon class="h" points="343.27 44.79 365.99 66.88 343.53 79.45 337.5 62.44 333.82 43.95 343.27 44.79"/><polygon class="i" points="329.75 40.8 326.81 46.77 314.1 72.49 343.53 79.45 337.57 49.83 329.75 40.8"/><polygon class="j" points="326.81 46.77 340.11 62.44 343.27 44.79 326.81 46.77"/><polygon class="h" points="326.05 10.92 348.94 39.78 337.57 49.83 330.05 33.47 326.05 10.92"/><polygon class="i" points="326.05 10.92 320.51 44.98 337.57 49.83 326.05 10.92"/><polygon class="m" points="273.23 187.4 311.53 192.34 324.58 185.39 307.08 175.98 273.23 187.4"/><polygon class="f" points="306.67 157.64 314.12 153.84 315.23 155.34 307.45 160.65 306.67 157.64"/><polygon class="f" points="297.98 150.43 281.65 155.3 282.42 157.25 299.86 153.36 297.98 150.43"/><polygon class="g" points="310.5 179.16 299.86 148.03 297.98 135.42 302.33 139.02 313.74 180.36 310.5 179.16"/><polygon class="f" points="299.86 140.83 310.5 179.16 308.46 179.87 292.63 135.42 299.86 140.83"/><polygon class="h" points="288.75 89.61 294.02 95.04 324.58 119.79 299.86 140.83 283.69 116.17 281.65 95.89 288.75 89.61"/><polygon class="i" points="274.43 93.76 271.68 99.64 251.09 134.36 299.86 140.83 285.74 100.33 274.43 93.76"/><polygon class="j" points="271.68 99.64 289.75 111.85 294.02 95.04 271.68 99.64"/><polygon class="h" points="278.33 62.02 281.33 64.94 305.08 87.98 285.74 100.33 275.01 75.57 274.43 65.35 278.33 62.02"/><polygon class="i" points="272.69 63.04 271.23 66.23 256.25 98.89 285.74 100.33 277.31 67.78 272.69 63.04"/><polygon class="j" points="271.23 66.23 279.6 76.62 281.33 64.94 271.23 66.23"/><polygon class="h" points="274.61 32.77 286.76 61.1 277.31 67.78 271.44 56.76 274.61 32.77"/><polygon class="i" points="274.61 32.77 261.99 63.88 277.31 67.78 274.61 32.77"/><polygon class="g" points="1266.45 182.2 1265.62 187.99 1269.59 206.79 1271.4 206.24 1268.51 176.11 1266.45 182.2"/><polygon class="f" points="1266.45 182.2 1269.59 206.79 1267.27 207.5 1260.64 175.35 1266.45 182.2"/><polygon class="h" points="1261.09 140.32 1266.45 132.72 1271.4 137.21 1301.11 166.89 1266.45 182.2 1259.94 161.19 1261.09 140.32"/><polygon class="i" points="1253.74 131.44 1249.9 136 1230.41 167.96 1266.45 182.2 1261.09 140.32 1253.74 131.44"/><polygon class="j" points="1249.9 136 1262.71 152.99 1271.4 137.21 1249.9 136"/><polygon class="h" points="1264.26 96.1 1266.77 98.96 1289.94 134.31 1261.09 140.32 1256.17 101.17 1264.26 96.1"/><polygon class="i" points="1255.55 94.1 1251.64 98.64 1231.41 131.31 1261.09 140.32 1259.09 102.72 1255.55 94.1"/><polygon class="j" points="1251.64 98.64 1259.62 112.75 1266.77 98.96 1251.64 98.64"/><polygon class="h" points="1261.43 40.1 1275.33 94.75 1259.09 102.72 1257.4 84.52 1261.43 40.1"/><polygon class="i" points="1261.43 40.1 1242.79 93.79 1259.09 102.72 1261.43 40.1"/><polygon class="m" points="1300.15 239.94 1309.76 232.4 1332.89 233.69 1354.38 242.94 1382.17 240.33 1392.49 231.64 1373.23 225.37 1344.64 216.63 1289.5 231.64 1300.15 239.94"/><polygon class="m" points="428.93 347.95 449.99 355.28 477.74 348.32 509.35 356.43 534.32 346.96 501.5 333.29 477.74 320.8 427.87 326.63 421.22 339.49 428.93 347.95"/><polygon class="n" points="427.99 286.15 426.16 317.04 430.14 339.41 453.99 332.53 443.03 280.44 431.16 281.3 427.99 286.15"/><polygon class="o" points="403.56 279.55 394.53 334 430.14 339.41 427.99 286.15 423.29 280.76 403.56 279.55"/><polygon class="p" points="403.56 279.55 425.36 273.68 443.03 280.44 427.99 286.15 403.56 279.55"/><polygon class="q" points="415.21 307.16 406.72 309.48 403.56 313.96 398.04 323.21 401.23 345.14 417.36 337.47 415.21 307.16"/><polygon class="o" points="378.06 305.62 373.15 341.76 401.23 345.14 403.56 313.96 396.64 307.77 378.06 305.62"/><polygon class="p" points="400.93 295.41 378.06 305.62 403.56 313.96 415.21 307.16 399.91 302.19 400.93 295.41"/><polygon class="q" points="429.62 326.51 435.29 345.94 412.33 353.21 407.14 338.33 429.62 326.51"/><polygon class="r" points="382.34 334.96 379.79 349.51 412.33 353.21 409.28 339.41 401.75 335.6 382.34 334.96"/><polygon class="p" points="416.43 324.38 402.29 330.97 391.02 329.21 382.34 334.96 409.28 339.41 429.62 326.51 416.43 324.38"/><polygon class="m" points="311.44 202.15 320.97 203.56 335.64 198.82 346.82 206.7 371.01 204.73 377.27 196.04 393.23 193.21 407.31 193.74 420.13 188.56 413.4 187.4 381.5 175.98 328.82 187.4 311.44 202.15"/><polygon class="n" points="372.1 139.28 359.69 145.82 367.06 194.04 403.31 186.07 395.92 140.62 372.1 139.28"/><polygon class="o" points="335.64 139.28 332.27 174.11 367.06 194.04 363.73 146.92 353.14 139.96 335.64 139.28"/><polygon class="n" points="357.16 159.81 367.06 194.04 340.31 201.16 340.31 162.68 357.16 159.81"/><polygon class="o" points="328.06 161.86 320.97 197.15 340.31 201.16 345.86 164.86 342.61 161.86 328.06 161.86"/><polygon class="p" points="342 156.43 328.06 161.86 345.86 164.86 357.16 159.81 342 156.43"/><polygon class="q" points="348.48 183.75 352.18 181.9 357.67 181.9 361.5 202.75 346.82 206.7 345.86 200.21 348.48 183.75"/><polygon class="r" points="328.82 203.79 332.27 179.72 342.61 181.12 348.48 183.75 346.82 206.7 328.82 203.79"/><polygon class="p" points="332.27 179.72 344.16 175.98 357.67 181.9 348.48 183.75 332.27 179.72"/><polygon class="q" points="324.58 179.16 326.05 198.21 311.44 202.15 311.63 183.17 324.58 179.16"/><polygon class="r" points="299.86 180.9 312.22 180.9 314.12 185.39 311.44 202.15 298.03 199.09 299.86 180.9"/><polygon class="p" points="299.86 180.9 314.12 175.98 324.58 179.16 314.12 185.39 299.86 180.9"/><polygon class="p" points="335.64 139.28 363.73 146.92 395.92 140.62 369.28 133 335.64 139.28"/><polygon class="q" points="391.18 173.42 388.25 180.69 393.23 193.21 413.4 187.4 407.4 173.07 391.18 173.42"/><polygon class="r" points="378.67 173.42 389.55 173.98 391.18 176.59 393.23 193.21 379.58 191.29 378.67 173.42"/><polygon class="p" points="378.67 173.42 400.22 167.07 407.4 173.07 391.18 176.59 378.67 173.42"/><polygon class="m" points="121.11 338.62 139.74 342.05 157.05 332.88 139.08 326.8 121.11 338.62"/><polygon class="r" points="144.98 319.26 148.88 334.19 121.11 338.62 121.11 327.17 144.98 319.26"/><polygon class="s" points="98.45 322.28 93.92 333.15 121.11 338.62 123.47 329.97 119.77 323.6 98.45 322.28"/><polygon class="p" points="98.45 322.28 119.13 314.89 144.98 319.26 123.47 329.97 98.45 322.28"/><polygon class="m" points="288.82 307.31 314.51 305.62 324.39 299.24 333.08 296.24 339.33 301.55 351.2 302.16 358.05 295.66 346.45 292.01 328.3 292.01 320.91 289.99 309.82 289.06 296.34 296.24 288.82 307.31"/><polygon class="n" points="320.67 257.51 320.91 289.99 306.63 294.84 297.3 293.95 310.2 258.01 320.67 257.51"/><polygon class="o" points="298.97 259.69 290.35 290.57 301.33 293.25 312.2 261.55 310.2 258.01 298.97 259.69"/><polygon class="p" points="298.97 259.69 312.2 261.55 320.67 257.51 310.01 254.52 298.97 259.69"/><polygon class="n" points="349.03 287.29 351.2 298.66 339.33 301.55 337.93 290.74 349.03 287.29"/><polygon class="o" points="326.82 289.59 324.39 299.24 339.33 301.55 340.35 292.01 337.93 289.07 326.82 289.59"/><polygon class="p" points="337.54 285.84 326.82 289.59 340.35 292.01 349.03 287.29 337.54 285.84"/><polygon class="q" points="303.12 284.01 308.74 301.34 288.82 307.31 285.86 288.07 303.12 284.01"/><polygon class="o" points="266.42 286.04 260.65 301.34 288.82 307.31 290.35 290.57 280.65 285.18 266.42 286.04"/><polygon class="p" points="266.42 286.04 283.84 279.1 303.12 284.01 290.35 290.57 266.42 286.04"/><polygon class="n" points="1366.09 208.8 1367.11 221.56 1349.89 219.38 1348.72 211.73 1366.09 208.8"/><polygon class="t" points="1353.19 204.3 1366.09 208.8 1348.17 213.69 1353.19 204.3"/><polygon class="q" points="1353.58 178.47 1357.06 223.33 1335.58 225.65 1324.85 213.71 1329.83 180.77 1353.58 178.47"/><polygon class="o" points="1312.61 179.51 1306.53 214.02 1330.45 217.63 1335.58 184.22 1333.09 180.91 1312.61 179.51"/><polygon class="n" points="1376.38 222.33 1382.51 236.69 1354.38 242.94 1353.58 230.94 1376.38 222.33"/><polygon class="n" points="1332.89 201.3 1340.55 226.2 1298.43 234.68 1296.89 214.96 1332.89 201.3"/><polygon class="o" points="1258.89 206.79 1253.74 227.65 1298.43 234.68 1301.11 216.63 1291.79 208.62 1258.89 206.79"/><polygon class="t" points="1258.89 206.79 1280.04 192.96 1332.89 201.3 1301.11 216.63 1258.89 206.79"/><polygon class="q" points="1295.89 227.3 1300.15 239.94 1279.33 244.49 1272.48 234.39 1278.49 228.51 1295.89 227.3"/><polygon class="o" points="1261.09 228.81 1258.4 240.13 1279.33 244.49 1278.13 234.8 1275.64 231.23 1261.09 228.81"/><polygon class="t" points="1270.28 222.33 1295.89 227.3 1278.13 234.8 1261.09 228.81 1270.28 222.33"/><polygon class="o" points="1326.57 229.01 1322.74 239.09 1354.38 242.94 1357.06 232.47 1349.55 229.01 1326.57 229.01"/><polygon class="t" points="1356.54 216.63 1326.57 229.01 1357.06 232.47 1376.38 222.33 1356.54 216.63"/><polygon class="t" points="1312.61 179.51 1335.58 184.22 1353.58 178.47 1327.3 172.57 1312.61 179.51"/><polygon class="m" points="865.65 143 872.47 140.45 878.29 149.8 909.25 148.33 907.25 140.45 921.01 139.06 902.93 122 866.36 122 857.23 126.41 865.65 143"/><polygon class="r" points="857.95 108.49 857.23 126.41 867.31 130.91 872.29 119.7 870.63 111.9 857.95 108.49"/><polygon class="u" points="869.08 114.28 857.95 108.49 875.93 103.91 875.93 110.96 869.08 114.28"/><polygon class="q" points="903.43 91.38 910.06 135.28 889.98 137.68 884.69 99.95 903.43 91.38"/><polygon class="o" points="871.01 93.93 867.31 130.91 889.98 137.68 887.03 102.61 882.63 94.5 871.01 93.93"/><polygon class="t" points="882.08 86.37 871.01 93.93 887.03 102.61 903.43 91.38 882.08 86.37"/><polygon class="n" points="896.59 120.75 897.93 145.32 878.29 149.8 877.82 127.83 896.59 120.75"/><polygon class="o" points="862.72 118.37 865.65 143 878.29 149.8 879.31 129.78 874.08 122.93 862.72 118.37"/><polygon class="t" points="869.08 114.28 862.72 118.37 879.31 129.78 896.59 120.75 869.08 114.28"/><polygon class="m" points="839.21 160.95 861.3 157.38 850.81 151.28 839.21 160.95"/><polygon class="n" points="852.84 147.76 854.75 155.57 839.21 160.95 840.12 150.26 852.84 147.76"/><polygon class="o" points="830.68 146.88 829.25 156.86 839.21 160.95 841.79 150.95 840.12 148.34 830.68 146.88"/><polygon class="u" points="830.68 146.88 844.13 143.73 852.84 147.76 841.79 150.95 830.68 146.88"/><polygon class="m" points="1394.51 356.89 1413.42 355.27 1422.38 348.19 1402.83 345.7 1394.51 356.89"/><polygon class="m" points="1464.99 350.44 1483.65 347.57 1497.69 335.77 1463.33 328.39 1464.99 350.44"/><polygon class="n" points="1408.84 334.5 1411.14 352.09 1394.51 356.89 1395.51 344.81 1408.84 334.5"/><polygon class="o" points="1377.2 338.25 1373.68 354.09 1394.51 356.89 1398.38 345.55 1391.23 340.04 1377.2 338.25"/><polygon class="t" points="1377.2 338.25 1391.99 330.75 1408.84 334.5 1398.38 345.55 1377.2 338.25"/><polygon class="n" points="1482.89 329.63 1485.69 342.15 1464.99 350.44 1463.33 341.13 1482.89 329.63"/><polygon class="n" points="1469.36 306.27 1473.18 332.19 1454.29 341.13 1450.23 319.23 1469.36 306.27"/><polygon class="o" points="1421.36 312.15 1417.27 335.25 1454.29 341.13 1455.57 321.59 1448.42 313.42 1421.36 312.15"/><polygon class="t" points="1421.36 312.15 1437.44 302.19 1469.36 306.27 1455.57 321.59 1421.36 312.15"/><polygon class="o" points="1433.99 337.89 1431.57 348.19 1464.99 350.44 1466.08 343.13 1460.42 339.01 1433.99 337.89"/><polygon class="t" points="1438.21 331.68 1454.82 335.48 1472.13 326.7 1482.89 329.63 1466.08 343.13 1433.99 337.89 1438.21 331.68"/><polygon class="m" points="813.13 144.47 829.25 145 845.09 136.96 829.11 130.91 813.13 144.47"/><polygon class="n" points="832.94 125.29 836.52 139.9 813.13 144.47 812.25 127.78 832.94 125.29"/><polygon class="o" points="793.33 126.91 791.22 139.34 813.13 144.47 814.75 131.47 812.25 127.78 793.33 126.91"/><polygon class="t" points="793.33 126.91 812.45 119.55 832.94 125.29 814.75 131.47 793.33 126.91"/><polygon class="m" points="449.34 164.86 473.88 162.09 483.81 154.37 468.64 148.96 449.34 164.86"/><polygon class="o" points="417.36 157.89 423.49 139.02 450.63 140.83 449.34 164.86 417.36 157.89"/><polygon class="n" points="446.84 144.62 451.55 139.28 468.92 135.9 475.51 155.6 449.34 164.86 446.84 144.62"/><polygon class="p" points="423.49 139.02 447.93 132.89 468.92 135.9 446.84 144.62 423.49 139.02"/><polygon class="m" points="491.56 180.87 510.2 178.01 512.52 173.83 497.01 170.66 491.56 180.87"/><polygon class="o" points="477.51 176.88 481.39 161.65 494.56 164.86 491.56 180.87 477.51 176.88"/><polygon class="n" points="492.56 165.86 492.61 163.98 499.21 163.01 502.47 176.99 491.56 180.87 492.56 165.86"/><polygon class="p" points="481.39 161.65 491.56 158.83 499.21 163.01 492.56 165.86 481.39 161.65"/><polygon class="m" points="955.64 160.12 976.13 158.6 981.11 154.89 969.23 150.95 955.64 160.12"/><polygon class="o" points="939.3 155.68 943.66 143.73 960.62 146.71 955.64 160.12 939.3 155.68"/><polygon class="n" points="958.06 147.85 960.11 145.23 971.41 145.23 973.89 155.04 955.64 160.12 958.06 147.85"/><polygon class="p" points="943.66 143.73 957.04 140.3 971.41 145.23 958.06 147.85 943.66 143.73"/><polygon class="m" points="1246.9 332.57 1272.48 330.4 1278.49 323.59 1256.38 318.62 1246.9 332.57"/><polygon class="o" points="1234.89 295.47 1228.4 327.25 1246.9 332.57 1257.17 300.48 1234.89 295.47"/><polygon class="n" points="1253.17 302.48 1254.28 298.75 1263.11 298.73 1265.87 327.25 1246.9 332.57 1253.17 302.48"/><polygon class="t" points="1234.89 295.47 1249.1 290.74 1263.11 298.73 1253.17 302.48 1234.89 295.47"/><polygon class="v" points="1097.85 233.96 1105.93 237.11 1114.07 234.43 1102.45 232.13 1097.85 233.96"/><polygon class="v" points="178.97 335.37 192.37 331.51 208.65 335.37 192.36 342.99 178.97 335.37"/><polygon class="w" points="191.88 337.75 193.96 336.69 195.6 320.96 193.13 321.85 190.48 326.8 191.88 337.75"/><polygon class="x" points="190.04 321.85 190.6 336.69 191.88 337.75 192.36 325.8 190.04 321.85"/><polygon class="y" points="191.28 298.58 211.06 318.74 192.36 325.8 188.18 315.68 191.28 298.58"/><polygon class="z" points="175.1 318.59 192.36 325.8 191.28 298.58 175.1 318.59"/><polygon class="aa" points="705.49 291.82 694.99 287.39 679.65 291.82 695.12 296.85 705.49 291.82"/><polygon class="ab" points="694.7 291.82 695.72 275.94 691.26 274.44 694.7 291.82"/><polygon class="ab" points="693.6 291.82 688.65 279.83 685.64 283.57 693.6 291.82"/><polygon class="ab" points="696.34 291.44 698.92 279.56 704.11 281.64 696.34 291.44"/><polygon class="ac" points="698.33 283.46 709.9 279.83 698.33 271.67 698.33 283.46"/><polygon class="ad" points="695.48 279.83 698.69 265.99 686.89 272.11 695.48 279.83"/><polygon class="ac" points="686.89 284.87 689.62 277.06 677.27 282.45 686.89 284.87"/><polygon class="ae" points="1059.81 373.69 1049.29 369.25 1033.95 373.69 1049.43 378.72 1059.81 373.69"/><polygon class="ab" points="1049.01 373.69 1050.03 357.79 1045.56 356.29 1049.01 373.69"/><polygon class="ab" points="1047.9 373.69 1042.95 361.69 1039.94 365.43 1047.9 373.69"/><polygon class="ab" points="1050.65 373.3 1053.23 361.42 1058.43 363.5 1050.65 373.3"/><polygon class="af" points="1052.29 365.77 1064.8 361.91 1053.37 352.82 1052.29 365.77"/><polygon class="af" points="1049.74 362.38 1053.59 347.14 1040.6 353.88 1049.74 362.38"/><polygon class="af" points="1041.53 367.12 1044.54 358.53 1030.95 364.46 1041.53 367.12"/><polygon class="ae" points="512.22 261.23 523.58 256.44 540.14 261.23 523.43 266.66 512.22 261.23"/><polygon class="ab" points="523.89 261.23 522.78 244.07 527.61 242.45 523.89 261.23"/><polygon class="ab" points="525.08 261.23 530.42 248.28 533.68 252.32 525.08 261.23"/><polygon class="ab" points="522.11 260.81 519.32 247.99 513.71 250.23 522.11 260.81"/><polygon class="af" points="520.35 252.69 506.83 248.52 519.18 238.7 520.35 252.69"/><polygon class="af" points="523.1 249.02 518.94 232.58 532.97 239.85 523.1 249.02"/><polygon class="af" points="531.96 254.14 528.71 244.86 543.38 251.27 531.96 254.14"/><polygon class="v" points="78.54 261.55 89.48 257.07 102.25 262.53 89.96 266.04 78.54 261.55"/><polygon class="w" points="88.44 262.53 89.58 262.27 91.1 251.32 89.96 252.38 87.86 255.06 88.44 262.53"/><polygon class="x" points="87.37 262.06 87.42 251.61 89.96 252.38 89.42 254.97 88.44 262.53 87.37 262.06"/><polygon class="y" points="90.81 237.81 102.63 251.32 89.42 254.97 87.66 249.25 90.81 237.81"/><polygon class="z" points="89.42 254.97 77.03 249.31 90.81 237.81 89.42 254.97"/><polygon class="m" points="1513.36 350.28 1522.53 346.33 1532.78 349.65 1521.55 353.3 1513.36 350.28"/><polygon class="w" points="1522.57 350.63 1523.52 350.16 1522.89 343.08 1521.7 344.75 1521.55 346.49 1522.57 350.63"/><polygon class="x" points="1521.39 350.47 1519.88 344.27 1521.7 344.75 1522.57 350.63 1521.39 350.47"/><polygon class="y" points="1519.88 332.88 1530.31 341.5 1521.84 345.7 1519.88 339.84 1519.88 332.88"/><polygon class="z" points="1519.88 332.88 1510.7 343.72 1521.84 345.7 1519.88 332.88"/><polygon class="v" points="207.59 344.86 216.73 342.43 229.41 346.68 214.19 350.14 207.59 344.86"/><polygon class="w" points="215.18 346.68 216.51 346.12 218.84 338.3 216.73 338.52 215.63 342.47 215.18 346.68"/><polygon class="x" points="213.63 345.9 214.63 338.19 216.73 338.52 215.18 346.68 213.63 345.9"/><polygon class="y" points="216.96 321.42 228.24 336.71 216.49 340.25 214.96 331.94 216.96 321.42"/><polygon class="z" points="216.96 321.42 203.98 335.82 216.49 340.25 216.96 321.42"/><polygon class="ag" points="1108.09 224.23 1105.74 234 1104.91 219.65 1108.09 224.23"/><polygon class="ah" points="1099.04 218.28 1111.05 214.42 1120.23 220.34 1108.09 224.23 1099.04 218.28"/><polygon class="ai" points="1106.42 219.33 1109.23 217.61 1112.49 219.33 1108.55 221.02 1106.42 219.33"/><polygon class="v" points="547.06 168.91 553.92 166.26 562.13 168.83 554.48 171.49 547.06 168.91"/><polygon class="ag" points="551.15 163.67 554.61 170.42 553.83 159.81 551.15 163.67"/><polygon class="ah" points="559.38 157.89 549.86 154.65 541.83 159.82 551.15 163.67 559.38 157.89"/><polygon class="ai" points="553.51 158.78 550 156.81 547.45 159.54 550.77 160.97 553.51 158.78"/><polygon class="v" points="335.72 366.88 343.28 362.96 353.62 366.41 344.07 369.47 335.72 366.88"/><polygon class="ag" points="344.29 360.91 342.66 367.68 340.28 356.71 344.29 360.91"/><polygon class="af" points="333.81 356.55 343.73 350.83 354.32 355.17 344.29 360.91 333.81 356.55"/><polygon class="aj" points="339.88 355.92 343.69 353.87 346.68 355.44 343.06 357.73 339.88 355.92"/><polygon class="m" points="1312.4 289.75 1324.29 285.04 1336.11 290.74 1322.69 295.88 1312.4 289.75"/><polygon class="ag" points="1319.78 281.46 1323.85 292.66 1324.87 274.97 1319.78 281.46"/><polygon class="ah" points="1300.88 274.97 1319.78 281.46 1334.83 272.88 1316.14 267.36 1300.88 274.97"/><polygon class="ai" points="1310.62 274.41 1316.58 272.01 1322.69 273.21 1318.33 277.25 1310.62 274.41"/><polygon class="m" points="1438.92 252.25 1445.27 249.23 1458.07 253.03 1445.92 256.46 1438.92 252.25"/><polygon class="ag" points="1446.6 246.23 1443.28 253.71 1444.05 242.28 1446.6 246.23"/><polygon class="af" points="1436.9 239.64 1446.6 246.23 1459.49 242.4 1447.88 234.85 1436.9 239.64"/><polygon class="aj" points="1444.05 240.36 1448.19 238.83 1451.7 241.25 1446.6 242.66 1444.05 240.36"/><polygon class="ae" points="1006.25 352.66 1017.04 348.21 1028.34 352.68 1019.36 355.98 1006.25 352.66"/><polygon class="ak" points="1013.21 344.25 1017.45 353.52 1016.46 338.57 1013.21 344.25"/><polygon class="al" points="999.16 338.57 1012.33 331.95 1027.19 336.74 1013.21 344.25 999.16 338.57"/><polygon class="am" points="1009.25 338.1 1012.33 335.68 1017.04 336.89 1012.33 339.89 1009.25 338.1"/><polygon class="v" points="208.15 189.69 213.9 187.39 226.66 191.09 210.96 193.39 208.15 189.69"/><polygon class="ak" points="216.15 184.89 212.82 191.83 213.42 180.9 216.15 184.89"/><polygon class="al" points="206.31 178.25 218.15 174.68 228.02 179.53 216.15 184.89 206.31 178.25"/><polygon class="am" points="213.48 179.14 217.16 177.87 221.24 179.78 216.52 180.9 213.48 179.14"/><polygon class="v" points="899.62 203.42 905.21 206.17 911.23 203.42 904.76 201.07 899.62 203.42"/><polygon class="ag" points="905.63 200.08 903.24 205.04 902.41 196.64 905.63 200.08"/><polygon class="ah" points="898.38 195.41 905.5 192.49 912.88 196.98 905.63 200.08 898.38 195.41"/><polygon class="ai" points="903.62 195.84 905.63 194.81 908.16 196.28 905.63 198.01 903.62 195.84"/><polygon class="v" points="919.25 226.98 930.32 223.96 921.01 221.36 913.34 224.75 919.25 226.98"/><polygon class="ag" points="922.78 219.23 919.25 226.98 919.59 214.79 922.78 219.23"/><polygon class="ah" points="933.37 212.41 921.73 209.24 912.45 214.79 922.78 219.23 933.37 212.41"/><polygon class="ai" points="925.96 213.26 922.55 212.18 918.01 214.15 922.91 215.78 925.96 213.26"/><polygon class="v" points="811.35 192.94 822.31 195.76 828.57 192.44 820.71 190.42 811.35 192.94"/><polygon class="ag" points="819.56 186.97 822.31 195.2 823.86 181.87 819.56 186.97"/><polygon class="ah" points="806.42 182.35 816.63 177.8 829.47 180.62 819.56 186.97 806.42 182.35"/><polygon class="ai" points="814.14 181.67 817.14 180.14 821.27 181.67 817.94 183.84 814.14 181.67"/><polygon class="m" points="567.73 252.51 616.71 266.62 693.98 254.04 620.78 233.45 567.73 252.51"/><polygon class="an" points="681.07 140.92 685.12 137.34 688.61 131.39 688.36 117.79 680.22 126.06 677.82 135.57 681.07 140.92"/><polygon class="ao" points="702.47 92.9 701.22 93.83 695.63 103.72 693.3 107 693.9 113.67 688.61 117.24 689.41 119.86 686.13 127.46 683.09 129.44 679.52 137.27 685.12 137.34 691.25 119.94 696.9 115.19 696.69 106.86 702.47 92.9"/><polygon class="i" points="686.82 129.05 689.41 119.86 688.61 117.24 683.09 129.44 686.82 129.05"/><polygon class="ap" points="701.22 93.83 702.47 92.9 700.37 93.06 693.3 107 696.21 105.3 701.22 93.83"/><polygon class="aq" points="676.21 129.44 678.34 122.14 687.3 116.31 688.61 117.24 686.82 121.11 683.11 124.36 683.09 129.44 681.52 132.89 677.82 135.57 676.21 129.44"/><polygon class="ar" points="693.98 117.64 693.3 132.92 685.12 137.34 688.61 117.24 693.98 117.64"/><polygon class="ao" points="630.14 239.19 630.14 245.68 638.15 243.21 642.71 239.75 644.2 233.91 630.14 239.19"/><polygon class="ao" points="595.72 233.35 593.32 245.71 600.25 245.68 606.83 241.52 608.31 238.41 595.72 233.35"/><polygon class="i" points="642.71 239.75 630.14 245.68 630.14 249.05 640.8 249.94 653.89 249.05 642.71 239.75"/><rect class="ao" x="630.14" y="249.05" width="23.75" height="3.21"/><polygon class="i" points="606.83 241.52 609.75 250.83 601.53 252.43 592.15 250.83 593.32 245.71 606.83 241.52"/><rect class="ao" x="592.15" y="250.83" width="17.6" height="3.21"/><polygon class="ar" points="581.26 190.83 576.38 196.46 574.33 198.82 576.94 201.25 583.37 192.38 581.26 190.83"/><polygon class="aq" points="576.38 181.73 570.12 184.09 567.58 189.61 570.8 197.17 574.33 198.82 574.33 198.82 579.28 193.74 576.38 181.73"/><polygon class="an" points="581.51 190.55 572.23 179.53 570.12 184.09 579.28 193.74 581.26 190.83 581.51 190.55"/><polygon class="ar" points="574.33 198.82 567.58 189.61 564.99 198.57 569.25 204.73 574.33 198.82 574.33 198.82"/><polygon class="as" points="607.9 149.6 603.17 148.89 590.73 147.58 607.35 160.99 608.52 164.93 616.1 180.36 626.31 170.41 607.9 149.6"/><polygon class="at" points="601.53 167.31 607.02 176.94 612.77 179.53 616.92 173.62 608.52 159 601.53 167.31"/><polygon class="as" points="653.95 162.01 629.44 198.05 616.92 173.62 607.02 176.94 588.26 229.18 613.61 244.53 613.7 244.59 655.75 228.04 653.95 162.01"/><polygon class="y" points="645.11 164.73 636.81 179.22 632.58 175.43 626.31 170.41 616.92 173.62 614.04 241 651.54 161.78 645.42 163.87 645.11 164.73"/><polygon class="y" points="590.73 147.58 571.56 173.07 594.68 176.59 603.78 154.37 590.73 147.58"/><polygon class="as" points="571.56 173.07 571.56 173.07 580.76 191.54 585.96 189.74 603.17 155.3 571.56 173.07"/><polygon class="au" points="603.78 154.37 580.76 189.61 589.11 188.98 593.9 186.08 608.52 159 603.78 154.37"/><polygon class="ao" points="579.28 193.74 591.66 189.61 593.9 186.08 580.76 189.61 571.56 173.07 571.56 173.07 569.22 176.14 579.28 193.74"/><polygon class="r" points="659.34 111.73 646.14 114.28 647.02 120.88 648.37 128.89 655.04 124.24 659.34 111.73"/><polygon class="t" points="644.58 105.64 648.23 115.57 659.34 111.73 644.58 105.64"/><polygon class="r" points="649.78 137.27 652.35 139.35 657.77 140.46 662.5 130.37 654.96 132.89 649.78 137.27"/><polygon class="u" points="655.04 124.24 646.14 124.24 649.78 137.27 662.5 130.37 655.04 124.24"/><polygon class="u" points="600.24 132.89 589.34 135.88 586.16 144.19 592.72 145.41 601.09 138.31 600.24 132.89"/><polygon class="r" points="598.82 125.29 583.68 129.26 589.34 135.88 599.65 137.82 602.64 132.89 598.82 125.29"/><polygon class="t" points="598.87 114.39 595.87 115.03 593.59 112.11 583.68 129.26 599.16 127.13 598.87 114.39"/><polygon class="r" points="607.43 140.08 586.16 144.19 590.73 147.58 608.99 144.59 607.43 140.08"/><polygon class="r" points="646.48 105.51 646.51 105.64 646.49 105.51 646.48 105.51"/><polygon class="as" points="682.79 150.41 673.84 132.3 666.16 141.91 657.61 159.73 682.79 150.41"/><polygon class="y" points="649.78 137.27 648.69 147.75 660.24 157.25 666.16 141.91 649.78 137.27"/><polygon class="au" points="651.54 161.78 667.87 164.28 677.82 157.25 680.55 149.02 660.24 157.25 651.54 148.03 637.61 133.64 651.54 161.78"/><polygon class="ao" points="676.21 129.44 673.84 132.3 680.55 149.02 667.87 164.28 671.43 164.76 684.89 149.95 676.21 129.44"/><polygon class="as" points="645.42 163.87 651.54 161.78 648.49 155.58 645.42 163.87"/><polygon class="i" points="626.31 170.41 627.1 170.92 626.31 170.41 626.31 170.41"/><polygon class="ao" points="646.31 155.69 643.22 164.03 642.93 164.72 645.42 163.87 648.49 155.58 647.32 153.2 646.31 155.69"/><polygon class="i" points="622.63 141.59 621.11 148.03 606.83 154.37 628.51 169.43 628.64 169.61 642.93 164.72 622.63 141.59"/><polygon class="ap" points="602.98 153.23 606.83 154.37 623.71 148.03 599.65 137.82 592.72 145.41 602.98 153.23"/><polygon class="ao" points="636.81 131.78 636.78 131.73 636.68 131.79 636.81 131.78"/><polygon class="ao" points="627.11 167.25 592.72 145.41 590.73 147.58 626.31 170.41 639.41 187.4 646.55 164.73 627.11 167.25"/><polygon class="ao" points="622.63 141.59 614.74 136.2 600.24 132.89 599.65 137.82 623.71 148.03 622.63 141.59"/><polygon class="aq" points="650.72 130.07 642.83 83.98 629.71 73.88 621.39 80.92 604.1 79.78 601.09 82.52 607.35 94.73 618.09 139.02 633.9 134.65 650.72 130.07"/><polygon class="av" points="629.71 76.51 642.83 83.98 635.01 73.55 628.58 71.66 627.22 73.88 629.71 76.51"/><polygon class="t" points="628.58 71.66 615.35 67.78 615.66 77.64 622.8 83.98 629.71 76.51 628.58 71.66"/><polygon class="u" points="602.75 77.64 602.89 79.19 603.96 80.07 622.77 84.01 622.8 83.98 615.35 67.78 602.75 77.64"/><polygon class="ar" points="614.57 98.17 631.59 115.57 630.72 100.75 632.5 101.39 635.04 105.6 638.58 92.99 635.47 91.5 631.48 91.88 629.77 93.76 628.34 97.51 624.46 94.7 621.39 93.2 617.52 94.29 614.57 98.17"/><polygon class="ar" points="608.81 87.81 604.1 79.78 594.64 89.61 600.24 97.49 601.09 109.33 597.58 105.38 595.02 109.26 590.73 110.85 594.25 121.12 597.88 120.21 600.24 120.69 599.16 127.13 600.24 132.89 615.66 138.88 618.52 139.08 608.81 87.81"/><polygon class="an" points="597.88 120.21 599.16 127.13 602.59 118.95 597.88 120.21"/><polygon class="an" points="625.91 136.86 615.66 138.88 623.45 141.91 625.91 136.86"/><polygon class="an" points="593.59 112.11 599.65 116.17 598.05 110.67 593.59 112.11"/><polygon class="ao" points="614.04 241 588.26 229.18 587.12 232.77 613.61 244.53 613.7 244.59 655.85 231.93 655.75 228.04 614.04 241"/><polygon class="u" points="631.59 115.57 620.02 125.98 627.11 167.25 640.09 179.2 641.08 180.96 640.63 182.71 639.41 187.4 646.52 192.34 641.78 141.91 635.02 116.31 631.59 115.57"/><polygon class="av" points="647.88 178.01 653.95 162.01 647.02 120.88 636.98 114.39 635.02 116.31 646.52 192.34 650.42 184.77 648.42 181.52 647.32 179.92 647.88 178.01"/><rect class="at" x="640.32" y="178.58" width="7.88" height="3.55" transform="translate(-19.88 99.65) rotate(-8.71)"/><polygon class="an" points="640.27 122.29 629.49 124.14 629.01 121.95 639.79 120.11 640.27 122.29"/><circle class="aw" cx="621.31" cy="103.88" r="2.01"/><circle class="aw" cx="636.98" cy="100.33" r="2.01"/><polygon class="ax" points="629.77 93.76 633.63 99.26 636.98 114.39 634.28 115.98 631.59 115.57 628.66 100.63 624.46 94.7 629.77 93.76"/><polygon class="r" points="588.59 88.87 595.02 109.26 597.07 108.52 601.45 111.06 602.72 95 597.67 92.04 604.1 79.78 602.75 77.64 588.59 88.87"/><polygon class="r" points="636.98 114.39 631.59 115.57 635.25 117.79 636.98 114.39"/><polygon class="r" points="620.75 91.3 621.39 93.2 614.57 98.17 613.69 95.95 620.75 91.3"/><polygon class="r" points="630.72 89.61 631.48 91.88 638.58 92.99 639.06 91.45 630.72 89.61"/><polygon class="ay" points="676.04 231.6 685.79 233.55 672.77 242.91 676.04 231.6"/><polygon class="az" points="666.15 233.91 676.04 231.6 675.81 236.32 672.64 239.79 666.15 233.91"/><polygon class="al" points="671.48 235.24 675.92 234.07 681 235.57 678.38 238.93 671.81 238.64 671.48 235.24"/><polygon class="ay" points="666.15 233.91 675.81 236.32 678.64 245.58 675.09 255.69 669.42 254.41 666.15 233.91"/><polygon class="az" points="675.81 236.32 685.79 233.55 681.32 254.31 675.09 255.69 675.81 236.32"/><polygon class="ba" points="997 192.94 994.39 195.34 999.07 203.18 1000.75 198.06 997 192.94"/><polygon class="v" points="981.76 244.04 1063.43 260.64 1118.55 248.11 1047.64 226.67 981.76 244.04"/><polygon class="ba" points="1074.45 251.95 1069.97 254.19 1066.25 253.96 1074.45 245.53 1074.45 251.95"/><polygon class="bb" points="1084.39 244.71 1085.89 248.66 1074.45 251.95 1073.13 245.02 1084.39 244.71"/><polygon class="ba" points="1084.39 244.71 1092.95 253.83 1082.06 254.91 1074.45 251.95 1084.39 244.71"/><polygon class="bc" points="1073.37 215.12 1062.69 223.66 1065.77 249.14 1084.39 244.71 1073.37 215.12"/><polygon class="ba" points="1003.3 222.29 993.41 224.96 1003.3 231.5 1003.3 222.29"/><polygon class="ag" points="993.41 224.96 987.49 226.57 999.32 234.96 1002.58 229.15 993.41 224.96"/><polygon class="ba" points="999.32 234.96 994.01 240.31 1009.33 238.29 1008.8 235.91 999.32 234.96"/><polygon class="ag" points="994.01 240.31 989.62 244.71 1014.03 244.84 1013.01 239.31 1012.06 236.46 994.01 240.31"/><polygon class="bd" points="1007.17 237.57 1014.03 244.84 1014.4 239.55 1007.17 237.57"/><polygon class="bd" points="1034.9 195.69 1016.1 193.3 1018.07 210.82 1046.83 202.83 1034.9 195.69"/><polygon class="ag" points="1042.41 175.99 1034.9 195.69 1051.81 185.84 1042.41 175.99"/><polygon class="bc" points="1046.09 187.57 1034.9 195.69 1046.84 206.95 1054.93 206.79 1052.6 195.69 1046.09 187.57"/><polygon class="be" points="1034.9 195.69 1054.93 206.79 1064.84 210.45 1058.76 220.13 1044.89 211.95 1034.9 195.69"/><polygon class="bf" points="1044.89 211.95 1052.6 224.37 1061.18 232.63 1062.69 223.66 1062.69 217.4 1058.76 215.12 1044.89 211.95"/><polygon class="be" points="1044.89 211.95 1061.18 232.63 1059.73 242.71 1038.87 248.11 1039.99 228.46 1044.89 211.95"/><polygon class="ag" points="1044.89 211.95 1010.33 199.95 1022.56 225.46 1038.87 248.11 1044.89 211.95"/><polygon class="bc" points="1010.33 199.95 999.32 234.96 1038.87 248.11 1010.33 199.95"/><polygon class="bg" points="1041.14 172 1042.76 177.07 1046.09 187.57 1051.53 180.2 1052.6 173.93 1046.56 170.97 1041.14 172"/><polygon class="ba" points="1023.36 134.1 1022.02 168.77 1052.6 173.93 1066.48 154.18 1053.88 134.91 1039.46 130.75 1023.36 134.1"/><polygon class="ba" points="1045.9 126.98 1043.71 123.79 1037.85 121.63 1032.91 122.99 1029.53 127.09 1037.98 128 1045.9 126.98"/><polygon class="bb" points="1039.32 138.53 1037.71 140.94 1037.18 154.89 1042.69 143.71 1047.64 142.68 1039.32 138.53"/><polygon class="bb" points="1033.83 140.81 1027.12 137.59 1033.13 148.68 1033.83 140.81"/><polygon class="bb" points="1053.88 134.91 1052.6 173.93 1059.23 162.98 1061.18 153.68 1058.91 143.25 1053.88 134.91"/><polygon class="ab" points="1082.51 126.72 1078.08 108.35 1039.73 113.72 1037.04 117.83 1037.85 121.63 1048.81 128.91 1082.51 126.72"/><polygon class="bh" points="1039.73 113.72 1025.24 115.86 1023.9 127.13 1027.86 128.19 1037.85 121.63 1039.73 113.72"/><polygon class="bi" points="1047.64 142.68 1044.42 139.06 1039.32 138.53 1047.64 142.68"/><polygon class="bi" points="1033.83 140.81 1031.14 137.86 1027.12 137.59 1033.83 140.81"/><polygon class="bj" points="1033.83 140.81 1037.71 140.94 1037.18 154.89 1032.62 154.49 1033.83 140.81"/><polygon class="bg" points="1037.18 154.89 1034.76 157.57 1032.62 154.49 1037.18 154.89"/><polygon class="ag" points="1038.86 163.71 1034.43 166.26 1030.95 163.17 1034.65 162.42 1038.86 163.71"/><polygon class="be" points="1044.72 160.45 1038.86 163.71 1030.95 163.17 1027.57 159.95 1031.41 161.22 1034.9 160.02 1039.43 161.68 1044.72 160.45"/><polygon class="bh" points="1053.88 134.91 1061.18 153.68 1067.81 144.45 1073.37 132.55 1053.88 134.91"/><polygon class="ab" points="1069.75 135.32 1077.02 133.47 1084.39 135.71 1090.9 160.99 1094.06 167.77 1093.98 172.91 1078.01 165.75 1061.18 153.68 1069.75 135.32"/><polygon class="bh" points="1061.18 153.68 1054.93 168.44 1061.92 181.44 1069.75 188.3 1074.07 196.9 1080.5 202.7 1089.2 188.25 1093.98 172.91 1061.18 153.68"/><polygon class="ab" points="1093.98 172.91 1102.59 176.29 1115.85 185.44 1101.72 192.34 1089.87 200.31 1080.5 202.7 1093.98 172.91"/><polygon class="ab" points="1054.93 168.44 1052.6 173.93 1046.09 187.57 1058.42 190.22 1069.75 188.3 1054.93 168.44"/><polygon class="bi" points="1069.75 188.3 1065.77 204.18 1068.43 217.36 1079.27 208.52 1080.5 202.7 1069.75 188.3"/><polygon class="bh" points="1068.43 217.36 1089.82 207.63 1101.72 192.34 1080.5 202.7 1068.43 217.36"/><polygon class="bk" points="1115.85 185.44 1090.9 160.99 1093.98 172.91 1115.85 185.44"/><polygon class="ag" points="1046.09 187.57 1062.69 223.66 1073.37 215.12 1069.75 188.3 1046.09 187.57"/><circle class="aw" cx="1030.06" cy="144.39" r="1.91"/><circle class="aw" cx="1041.54" cy="145.23" r="1.91"/><polygon class="ag" points="1082.51 126.72 1023.9 127.13 1023.36 134.1 1084.39 135.71 1082.51 126.72"/><polygon class="be" points="1039.46 130.75 1035.97 127.04 1032.22 130.61 1035.83 134.43 1039.46 130.75"/><polygon class="bb" points="1018.46 202.83 1010.78 206.43 1009.86 200 1012.09 198.93 1014.98 196.51 1017.59 199.29 1018.46 202.83"/><polygon class="bl" points="1004.65 183.85 1014.33 186.13 1007.14 193.3 1004.27 192.07 1004.65 183.85"/><polygon class="bm" points="995.71 186.56 1004.65 183.85 1005.23 189.49 1002.64 192.94 995.71 186.56"/><polygon class="ah" points="1000.75 188.11 1004.93 186.56 1009.86 187.78 1008.63 190.78 1001.16 191.4 1000.75 188.11"/><polygon class="bm" points="1005.23 189.49 1014.33 186.13 1010.78 206.43 1005.8 208.63 1004.27 198.87 1005.23 189.49"/><polygon class="bl" points="995.71 186.56 1005.23 189.49 1005.8 208.63 999.77 206.62 995.71 186.56"/><polygon class="ba" points="1017.59 199.29 1016.1 193.3 1009.61 191.4 1005.42 195.78 1007.27 197.75 1010.14 194.84 1012.09 198.93 1017.59 199.29"/><polygon class="ba" points="491.76 282.71 496.5 290.75 505.55 295.41 501.57 282.71 491.76 282.71"/><polygon class="bb" points="502.89 317.04 508.13 334 504.25 339.41 491.76 327.51 502.89 317.04"/><polygon class="bn" points="508.13 334 519.38 334.96 517.48 340.59 512.5 341.76 507.14 342.16 503.75 337.98 508.13 334"/><polygon class="bo" points="519.38 334.96 524.1 335.16 526.19 337.98 515.29 345.14 512.5 344.84 512.5 341.76 519.38 334.96"/><polygon class="ba" points="495.28 326.51 503.75 337.98 501.04 341.13 496 342.16 486.77 337.09 487.99 331.41 495.28 326.51"/><polygon class="bo" points="503.75 337.98 512.5 341.76 507.4 347.48 498.65 351.7 496 342.16 503.75 337.98"/><polygon class="ad" points="512.5 341.76 519.78 345.17 520.36 348.32 498.65 351.7 512.5 341.76"/><polygon class="bp" points="477.74 348.32 502.89 317.04 497.86 302.16 490.32 292.43 480.72 297.66 476.12 320.2 477.74 348.32"/><polygon class="bq" points="471.33 292.91 455.96 317.04 447.93 343.55 477.74 348.32 480.72 297.66 471.33 292.91"/><polygon class="bb" points="494.68 290.33 500.24 290.52 505.55 295.41 497.86 302.16 494.68 290.33"/><polygon class="ba" points="473.2 276.18 491.76 282.71 486.77 292.43 468.86 293.08 473.2 276.18"/><polygon class="br" points="433.42 270.78 429.21 282.71 431.16 288.43 424.72 295.41 447.93 343.55 471.62 290.33 471.33 277.8 458.22 270.78 433.42 270.78"/><polygon class="bp" points="458.22 270.78 471.62 290.33 473.2 276.18 458.22 270.78"/><polygon class="bs" points="464.92 213.12 477.74 217.8 471.55 231.73 467.04 222.69 464.92 213.12"/><polygon class="br" points="413.99 224.4 408.79 221.97 401.33 213.69 435.29 188.56 440.8 197.84 443.03 205.52 428.33 218.18 413.99 224.4"/><polygon class="bt" points="435.29 188.56 463.82 193.66 464.92 213.12 452.7 210.87 443.03 205.52 435.29 188.56"/><polygon class="bq" points="401.33 213.69 408.6 235.63 412.81 230.02 413.99 224.4 401.33 213.69"/><polygon class="bn" points="436.86 192 435.49 192.95 437.26 197.07 433.96 199.32 435.14 202.06 438.58 199.81 440.31 203.56 441.74 202.69 440.8 197.84 436.86 192"/><polygon class="bu" points="436.86 192 438.83 192.48 440.5 195.97 444.57 196.92 445.09 199.49 441.78 198.81 443.55 202.86 441.74 202.69 436.86 192"/><polygon class="bv" points="434.82 316.35 451.55 320.48 480.72 297.66 497.86 302.16 495.26 290.75 443.51 302.99 424.72 295.41 434.82 316.35"/><polygon class="ba" points="464.92 213.12 480.4 256.6 459.1 265.04 451.55 277.44 436.86 267.86 431.16 231.55 445.96 217.25 464.92 213.12"/><polygon class="bb" points="431.16 231.55 445.67 270.78 459.1 265.04 455.6 270.24 457.7 274.19 455.57 288.23 429.72 267.86 428.99 265.5 426.16 265.06 417.31 258.09 424.4 245.57 431.16 231.55"/><polygon class="bb" points="463.8 225.61 458.13 238.66 455.36 244.78 440.81 234.73 446.31 231.15 450.15 231.02 454.53 229.29 457.64 226.66 463.8 225.61"/><polygon class="bj" points="450.13 230.99 455.36 244.78 458.53 244.97 459.84 243.12 454.51 229.24 450.13 230.99"/><polygon class="bg" points="459.84 243.12 458.51 246.65 455.36 244.78 459.84 243.12"/><polygon class="bg" points="459.1 265.04 457.7 274.19 441.39 271.74 459.1 265.04"/><polygon class="bg" points="430.14 261.54 429.72 267.86 426.16 265.06 430.14 261.54"/><polygon class="bg" points="427.99 259.81 424.1 255.74 421.45 258.1 427.99 259.81"/><polygon class="bs" points="445.32 223.82 445.96 214.27 443.03 205.52 413.99 224.4 403.56 246.15 417.58 239.87 431.16 231.55 437.31 228.2 445.32 223.82"/><polygon class="bw" points="431.16 231.55 429.89 257.39 424.78 251.54 417.31 258.09 403.56 246.15 431.16 231.55"/><polygon class="bx" points="443.03 205.52 464.92 213.12 445.32 223.82 443.03 205.52"/><polygon class="bs" points="450.13 230.99 448.96 227.94 440.81 234.73 450.13 230.99"/><polygon class="bs" points="454.51 229.24 463.8 225.61 453.48 226.28 454.51 229.24"/><polygon class="by" points="455.64 253.57 459.7 249.59 465.17 249.81 462.05 254.07 455.64 253.57"/><polygon class="bj" points="454.99 293.71 481.95 288.23 483.81 292.44 480.72 297.66 452.6 312.37 452.3 302.16 454.99 293.71"/><polygon class="bb" points="481.95 288.23 491.76 282.71 495.26 290.75 492.82 298.78 480.72 297.66 481.95 288.23"/><polygon class="bj" points="491.76 282.71 500.24 290.52 497.86 302.16 492.82 298.78 491.76 282.71"/><polygon class="bt" points="429.21 282.71 454.99 293.71 451.55 320.48 424.72 295.41 429.21 282.71"/><circle class="aw" cx="447.93" cy="238.91" r="2.15"/><circle class="aw" cx="461.05" cy="233.85" r="2.15"/><polygon class="bp" points="451.55 253.95 462.24 255.94 468.1 247.49 461.05 253.07 451.55 253.95"/><polygon class="v" points="764.15 331.2 774.23 332.72 790.98 331.44 822.35 321.83 824.37 310.31 833.66 308.17 802.7 302.06 764.15 331.2"/><polygon class="bz" points="796.04 322.15 801.4 316.91 807.38 321.59 804.88 324.75 790.98 331.44 791.95 327.86 796.04 322.15"/><polygon class="ca" points="806.97 318.26 801.14 318.92 804.88 324.75 808.83 322.9 806.97 318.26"/><polygon class="cb" points="808.42 307.3 814.7 306.56 821.01 308.92 819.08 312.86 810.47 317.01 808.42 307.3"/><polygon class="ca" points="820.61 305.88 814.7 306.56 819.08 312.86 824.37 310.31 820.61 305.88"/><polygon class="cb" points="779.67 327.99 810.47 317.01 806.24 296.93 789.35 300.59 778.17 306.06 779.67 327.99"/><polygon class="cc" points="766.61 303.55 765.83 322.07 779.67 327.99 783.75 315.04 781.61 306.24 773.94 303.05 766.61 303.55"/><polygon class="cc" points="800.58 301.09 810.47 317.01 811.32 300.35 800.58 301.09"/><polygon class="cd" points="821.76 266.6 824.45 275.99 813.77 275.09 814.46 270.14 821.76 266.6"/><polygon class="ca" points="806.18 274.55 810.7 265.99 821.76 266.6 813.77 275.09 806.18 274.55"/><polygon class="cd" points="779 268.16 777.11 277.88 787.28 275 785.79 270.02 779 268.16"/><polygon class="ca" points="795.52 271.99 789.63 264.43 779 268.16 787.28 275 792.63 274.63 795.52 271.99"/><polygon class="cb" points="813.77 275.09 811.82 295.18 797.02 293.94 796.04 279.59 813.77 275.09"/><path class="cc" d="M787.28,275l-3.36,14.45s12.8,4.84,13.1,4.49,2.25-12,2.25-12l-3.41-4.87Z"/><polygon class="bz" points="787.28 275 795.52 271.99 813.77 275.09 799.27 281.94 787.28 275"/><polygon class="bz" points="783.92 289.45 766.61 303.55 781.61 306.24 811.32 300.35 797.62 293.37 783.92 289.45"/><polygon class="ag" points="784.41 287.33 811.82 295.18 811.32 300.35 783.92 289.45 784.41 287.33"/><polygon class="cc" points="796.43 313.47 796.04 322.15 790.98 331.44 779.67 327.99 787.85 317.74 796.43 313.47"/><polygon class="bz" points="781.61 306.24 796.43 313.47 779.67 327.99 781.61 306.24"/><polygon class="ca" points="774.18 304.91 779.67 327.99 765.83 322.07 774.18 304.91"/><polygon class="ce" points="779.67 327.99 764.15 331.2 757.65 325.92 765.83 322.07 779.67 327.99"/><polygon class="cd" points="764.15 331.2 752.8 312.46 752.4 326.28 764.15 331.2"/><polygon class="v" points="836.16 348.72 829.85 351.63 851.55 357.31 869.19 350.6 844.86 342.94 836.16 348.72"/><path class="cf" d="M849.34,332.19l2.29,16.28c.18-.1.87.66,2,1.53a14.79,14.79,0,0,0,7-12.56,14.22,14.22,0,0,0-.11-1.73c-1.42-1.49-2.66-2.1-2.9-2.9l-1.19-2.76Z"/><path class="bm" d="M844.13,332.19l1.11,16.43c.15,0,1.42,2.41,3.39,3.34a14.77,14.77,0,0,0,5-2l.95-16.54-8.12-4.11Z"/><path class="bm" d="M849,324.27l.15,3,5.37,6.17,5.92,2.25a14.82,14.82,0,0,0-9.21-12A3,3,0,0,1,849,324.27Z"/><path class="bl" d="M837.12,327.48l2.72,3.07,6.59,1.64,8.12,1.27-3.29-9.77a14.74,14.74,0,0,0-13.65,1.38C837.12,326.41,837.47,327.2,837.12,327.48Z"/><path class="cg" d="M839.38,339.55l7-7.36-8.82-7.12a14.85,14.85,0,0,0-6,7.95c.59,1.12,1.21,1.73,1.12,2.12Z"/><path class="bm" d="M831.61,333a14.81,14.81,0,0,0,4.56,15.7c2.25-.06,2.73-.17,3.32.21l2-3.87-1.81-9Z"/><path class="bl" d="M836.16,348.72a14.77,14.77,0,0,0,9.6,3.54,14.5,14.5,0,0,0,2.88-.29l-2.21-19.78L839.69,336Z"/><polygon class="f" points="556.71 283.68 557.57 296.99 563.04 297.75 560.25 279.87 558.12 281.14 556.71 283.68"/><polygon class="ch" points="512.96 298.23 536.31 289.81 540.91 314.32 512.96 298.23"/><polygon class="ci" points="536.31 289.81 588.53 299.53 563.04 312.02 538.23 311.16 536.31 289.81"/><polygon class="z" points="524.7 304.3 531.6 295.94 545.89 296.43 540.03 309.62 524.7 304.3"/><polygon class="cj" points="545.89 296.43 554.19 299.41 555.79 307.68 546.53 310.75 537.96 308.17 545.89 296.43"/><polygon class="g" points="555.79 307.68 576.28 306.79 588.53 299.53 583.87 316.81 582.16 324.62 559.66 329.12 555.79 319.3 555.79 307.68"/><polygon class="f" points="512.96 298.23 520.53 322.17 559.66 329.12 555.79 307.68 534.79 306.16 512.96 298.23"/><polygon class="ck" points="555.79 307.68 557.44 316.81 590.51 308.83 588.53 299.53 555.79 307.68"/><polygon class="g" points="530.96 285 560.25 279.87 556.71 283.68 536.73 286.95 534.02 286.95 530.96 285"/><polygon class="f" points="531.79 302.39 530.96 285 536.73 286.95 537.69 305.1 531.79 302.39"/><polygon class="ci" points="512.96 298.23 509.35 312.68 552.02 318.4 555.79 307.68 512.96 298.23"/><polygon class="cl" points="523.55 358.87 593.17 334.87 659.13 355.7 589.33 381.85 523.55 358.87"/><polygon class="cm" points="545.89 359.2 597.15 343.94 639.6 356.23 590.22 374.43 545.89 359.2"/><polygon class="cn" points="573.15 320.89 571.44 329.38 573.03 346.16 580.23 344 585.34 342.71 583.87 316.81 575.7 317.45 573.15 320.89"/><polygon class="co" points="560.25 316.11 559.11 341.45 573.03 346.16 573.15 320.89 568.2 315.6 560.25 316.11"/><polygon class="al" points="571.44 309.47 573.79 306.4 577.55 307.68 583.87 316.81 573.15 320.89 570.83 315.21 571.44 309.47"/><polygon class="cp" points="567.15 308.06 560.25 316.11 573.15 320.89 571.44 309.47 569.66 307.17 567.15 308.06"/><polygon class="co" points="577.12 302.64 577.55 307.68 571.44 309.47 571.11 302.64 577.12 302.64"/><polygon class="al" points="567.71 302.25 567.15 308.06 571.44 309.47 572.16 303.69 570.72 300.72 567.71 302.25"/><polygon class="cq" points="572.13 295.74 576.67 295.36 577.12 302.64 572.16 303.69 571.44 301.01 572.13 295.74"/><polygon class="cr" points="568.2 294.88 572.08 295.36 572.9 296.51 572.16 303.69 567.71 302.25 568.2 294.88"/><polygon class="cs" points="568.2 294.88 572.99 293.83 576.67 295.36 572.9 296.51 568.2 294.88"/><polygon class="m" points="542.06 371.89 553.2 378.28 564.13 373.05 555.79 366.24 542.06 371.89"/><polygon class="cj" points="561.21 361.04 558.54 371.09 550.36 374.43 551.06 364.98 561.21 361.04"/><polygon class="y" points="537.35 363.69 542.06 371.89 550.36 374.43 552.02 365.77 548.45 362.83 537.35 363.69"/><polygon class="z" points="549.09 358.36 542.96 357.21 537.35 363.69 552.02 365.77 552.33 360.49 549.09 358.36"/><polygon class="y" points="549.09 358.36 554.19 356.19 561.21 361.04 552.02 365.77 549.09 358.36"/><polygon class="i" points="549.09 358.36 548.77 353 545.89 352.62 549.09 358.36"/><polygon class="m" points="584.16 351.71 595.73 356.65 618.62 352.62 605.73 347.95 584.16 351.71"/><polygon class="m" points="554.32 354.63 565.96 360.8 577.55 355.28 569.51 350.98 554.32 354.63"/><polygon class="m" points="566.2 365.25 567.54 370.37 573.16 372.19 581.04 374.43 590.14 370.08 595.11 367.94 592.82 366.63 591.52 364.01 600.37 362.83 599.59 359.2 584.85 364.5 580.23 362.83 572.16 363.56 567.54 362.42 565.29 364.01 566.2 365.25"/><polygon class="ct" points="577.15 344.92 573.03 354.15 565.42 357.21 564.86 349.45 577.15 344.92"/><polygon class="cu" points="550.78 344.96 554.32 354.63 565.42 357.21 565.71 350.51 562.07 346.01 550.78 344.96"/><polygon class="cu" points="565.04 341.51 563.8 345.34 565.71 350.51 577.15 344.92 573.07 337.37 566.57 338.96 565.04 341.51"/><polygon class="cv" points="555.79 337.4 550.78 344.96 565.71 350.51 565.04 341.51 561.79 338.04 555.79 337.4"/><polygon class="cw" points="555.79 337.4 563.75 334.56 573.07 337.37 565.04 341.51 555.79 337.4"/><polygon class="cx" points="561.47 336.94 562.71 336.26 564.1 336.71 562.67 337.61 561.47 336.94"/><polygon class="cx" points="562.99 338.7 564 338.47 564.79 338.88 563.7 339.49 562.99 338.7"/><polygon class="cx" points="566.13 337.12 567.22 336.48 568.2 337.2 567 338.03 566.13 337.12"/><polygon class="cx" points="557.13 341.56 558.32 340.8 559.11 341.45 558.21 342.71 557.13 341.56"/><polygon class="cx" points="567.71 342.58 568.44 341.71 569.64 342.4 568.99 343.83 567.71 342.58"/><polygon class="cx" points="571.44 342.5 572.39 341.91 572.99 342.62 572.35 343.58 571.44 342.5"/><polygon class="ct" points="613.75 341.37 610.23 350.83 596.51 354.53 597.6 347.38 613.75 341.37"/><polygon class="cu" points="580.23 344 584.16 351.71 596.51 354.53 598.04 349.55 591.34 345.85 580.23 344"/><polygon class="cu" points="598.55 338.77 595.11 345.6 598.04 349.55 613.75 341.37 606.53 333.98 600.6 335.38 598.55 338.77"/><polygon class="cv" points="587.77 333.6 594.15 334.36 598.55 338.77 598.04 349.55 580.23 344 587.77 333.6"/><polygon class="cw" points="587.77 333.6 598.11 330.53 606.53 333.98 598.55 338.77 587.77 333.6"/><polygon class="cx" points="593.24 333.37 594.82 333.23 595.73 334.14 593.53 334.71 593.24 333.37"/><polygon class="cx" points="598.22 334.57 599.85 334.14 600.56 334.76 599.17 335.67 598.22 334.57"/><polygon class="cx" points="591.52 340.36 593.62 339.17 594.63 340.36 592.71 342.47 591.52 340.36"/><polygon class="cx" points="601.81 340.03 602.67 339.36 603.53 339.93 602.81 341.37 601.81 340.03"/><polygon class="cx" points="600.18 342.52 600.95 342.23 601.71 342.66 600.47 343.95 600.18 342.52"/><polygon class="cx" points="606.16 339.5 606.93 338.4 608.13 339.12 607.27 340.41 606.16 339.5"/><polygon class="cx" points="588.4 337.15 589.27 336.72 590.22 337.68 587.83 339.07 588.4 337.15"/><polygon class="i" points="600.96 357.89 586.12 363.38 587.84 364.13 601.44 360.41 600.96 357.89"/><polygon class="ay" points="587.84 364.13 590 361.94 593.18 362.67 592.82 366.63 588.48 367.46 587.84 364.13"/><polygon class="ay" points="584.2 361.94 582.41 357.89 578.46 358.27 577.12 361.46 581.28 364.34 582.99 363.1 584.2 361.94"/><polygon class="ay" points="572.9 362.17 577.12 361.46 578.16 366.82 577.43 369.01 572.67 367.69 572.9 362.17"/><polygon class="cy" points="578.46 365.93 582.16 366.63 583.5 369.89 580.66 372.44 576.67 371.3 578.46 365.93"/><polygon class="az" points="569.97 360.32 568.95 357.44 572.65 356.23 575.42 359.2 572.9 362.17 571.1 361.94 569.97 360.32"/><polygon class="az" points="567.54 362.42 565.96 360.8 563.04 361.94 563.62 364.93 566.2 365.25 567.54 362.42"/><polygon class="cz" points="584.2 361.94 587.84 364.13 586.76 367.46 582.16 366.63 581.04 364.94 581.67 363.39 584.2 361.94"/><polygon class="ay" points="567.54 362.42 569.97 360.32 572.9 362.17 571.37 365.03 569.51 365.93 567.54 362.42"/><polygon class="az" points="577.12 361.46 580.09 360.8 581.67 363.39 582.16 366.63 577.79 367.94 575.59 366.96 574.82 365.23 577.12 361.46"/><polygon class="az" points="572.9 362.17 570.22 363.51 569.51 365.93 572.67 367.69 574.31 367.25 574.82 365.23 572.9 362.17"/><polygon class="az" points="587.84 364.13 584.85 367.12 586.12 370.37 590.14 370.08 590.89 367 587.84 364.13"/><polygon class="ay" points="572.67 367.69 571.37 369.44 573.16 372.19 576.67 371.3 577.79 367.94 574.82 365.23 572.67 367.69"/><polygon class="az" points="569.51 365.93 566.71 366.38 565.5 368.23 567.54 370.37 570.22 369.19 569.51 365.93"/><polygon class="m" points="609.73 374.21 622.3 380.15 644.61 374.21 635.64 369.19 609.73 374.21"/><polygon class="m" points="620.01 347.21 626.03 351.37 637.79 348.96 631.06 344.36 620.01 347.21"/><polygon class="m" points="638.31 353.13 645.63 357.89 654.55 354.26 648.11 349.55 638.31 353.13"/><polygon class="ay" points="626.22 313.17 636.75 314.8 631.49 323.03 624.6 321.79 626.22 313.17"/><polygon class="az" points="615.79 314.8 626.22 313.17 625.75 317.77 622.87 322.17 615.79 314.8"/><polygon class="ay" points="625.94 325.23 637.23 328.01 624.88 336.48 625.94 325.23"/><polygon class="az" points="616.47 327.16 625.94 325.23 626.22 331.27 623.92 335.67 616.47 327.16"/><polygon class="cy" points="625.75 317.77 636.75 314.8 633.12 331.27 626.22 331.27 624.88 321.31 625.75 317.77"/><polygon class="ay" points="626.22 331.27 625.75 317.77 615.79 314.8 619.77 328.55 626.22 331.27"/><polygon class="az" points="626.22 331.27 637.23 328.01 633.42 347.58 626.89 348.95 625.36 342.23 626.22 331.27"/><polygon class="cz" points="616.47 327.16 620.01 347.21 626.89 348.95 626.22 331.27 616.47 327.16"/><polygon class="cz" points="654.37 335.38 645.32 332.72 642.88 341.35 648.31 343.14 654.37 335.38"/><polygon class="az" points="635.99 334.51 645.32 332.72 645.63 336.96 643.78 340.84 635.99 334.51"/><polygon class="az" points="645.63 336.96 654.37 335.38 650.98 353.13 645.05 355.28 644.61 346.49 645.63 336.96"/><polygon class="cz" points="635.99 334.51 638.31 353.13 645.05 355.28 645.63 336.96 635.99 334.51"/><polygon class="da" points="638.35 363.49 637.42 373.17 623.92 378.28 622.3 367.95 638.35 363.49"/><polygon class="db" points="608.99 365.16 609.73 374.21 623.92 378.28 624.88 369.37 617.89 365.77 608.99 365.16"/><polygon class="b" points="634.17 358.65 638.35 363.49 624.88 369.37 622.3 361.77 634.17 358.65"/><polygon class="e" points="614.73 360.28 608.99 365.16 624.88 369.37 623.73 362.86 620.96 360.75 614.73 360.28"/><polygon class="h" points="623.92 358.65 622.3 360.28 623.73 362.86 634.17 358.65 634.03 354.53 625.36 356.54 623.92 358.65"/><polygon class="ak" points="615.17 355.01 614.73 360.28 623.73 362.86 623.92 358.65 620.77 355.97 615.17 355.01"/><polygon class="x" points="615.17 355.01 626.03 351.37 634.03 354.53 623.92 358.65 615.17 355.01"/><polygon class="bb" points="1147.32 282.73 1149.79 286.5 1160.36 286.88 1163.65 281.29 1147.32 282.73"/><polygon class="dc" points="1179.54 338.29 1179.54 346.29 1169.87 347.79 1153.19 346.29 1167.07 333.83 1173.76 334.12 1179.54 338.29"/><rect class="dd" x="1153.2" y="346.29" width="26.34" height="3.35"/><polygon class="de" points="1196.07 306.03 1185.82 326.03 1176.17 328.43 1168.36 316.99 1169.74 298.94 1196.07 306.03"/><polygon class="dc" points="1214.67 345.41 1215.46 351.65 1205.79 353.14 1196.12 351.65 1199.99 341.17 1203.05 340.43 1214.67 345.41"/><rect class="dd" x="1196.12" y="351.65" width="19.34" height="3.35"/><polygon class="v" points="1241.94 347.6 1181.04 333.88 1138.48 348.37 1191.63 364.42 1241.94 347.6"/><polygon class="df" points="1190.07 308.73 1195.2 326.17 1206.83 333.26 1215.32 329.69 1216.49 300.75 1199.98 298.83 1190.07 308.73"/><polygon class="dg" points="1214.8 299.49 1190.07 308.73 1169.74 298.94 1201.19 298.32 1214.8 299.49"/><polygon class="dh" points="1151.93 269.06 1164.44 273.09 1168.36 268.64 1170.72 253.15 1169.47 242.77 1168.59 229.78 1151.93 269.06"/><polygon class="dh" points="1180.39 223.44 1204.25 221.51 1207.91 227.79 1219.18 232.46 1216.49 300.75 1183.96 300.75 1167.28 297.04 1168.59 229.78 1180.39 223.44"/><polygon class="di" points="1201.89 226.41 1199.46 238.11 1183.75 248.43 1179.63 233.54 1180.39 223.44 1183.6 223.76 1189.46 227.79 1201.89 226.41"/><polygon class="df" points="1204.25 221.51 1207.91 227.79 1203.44 233.3 1196.56 237.49 1189.46 227.79 1181.81 233.96 1179.93 229.14 1180.39 223.44 1184.03 219.48 1204.25 221.51"/><polygon class="ba" points="1160.04 209.5 1182.9 216.12 1189.46 227.79 1197.26 222.05 1203.64 214.71 1204.62 209.86 1207.91 204.93 1210.51 205.29 1216.11 196.63 1211.19 192.68 1203.34 198.74 1199.68 195.77 1213.09 172.95 1205.94 165.37 1180.77 163.14 1173.57 158.18 1167.64 173.35 1160.04 209.5"/><polygon class="bb" points="1170.87 173.63 1174.26 182.14 1179.63 195.4 1187.69 185.6 1196.56 178.48 1190.76 176.07 1186.84 176.13 1183.6 176.84 1180.39 174.66 1177.29 173.13 1170.87 173.63"/><polygon class="dj" points="1181.07 170.35 1170.87 173.63 1180.39 174.66 1181.07 170.35"/><polygon class="dj" points="1186.84 176.13 1196.56 178.48 1188.3 171.91 1186.84 176.13"/><polygon class="bj" points="1180.39 174.66 1175.3 194.34 1179.63 195.4 1186.84 176.13 1180.39 174.66"/><polygon class="bg" points="1175.3 194.34 1176.61 197.77 1179.63 195.4 1175.3 194.34"/><polygon class="bg" points="1169.45 201.62 1185.13 203.8 1183.82 205.84 1169.65 204.04 1169.45 201.62"/><polygon class="bg" points="1212.03 196.51 1206.23 199.88 1210.83 200.29 1212.03 196.51"/><polygon class="bb" points="1205.94 165.37 1196.56 178.48 1188.3 214.98 1189.53 217.94 1189.46 227.79 1204.25 221.51 1206.1 211.13 1206.64 206.2 1203.44 204.21 1203.34 198.74 1199.68 195.76 1213.09 172.95 1205.94 165.37"/><polygon class="dj" points="1168.17 154.06 1173.57 158.18 1180.43 164.09 1183.6 153.79 1182.83 143.51 1168.17 154.06"/><polygon class="dk" points="1182.83 143.51 1218.48 160.14 1212.06 164.51 1205.23 165.99 1180.43 164.09 1182.83 143.51"/><polygon class="bx" points="1205.23 165.99 1212.06 172.92 1217.15 172.99 1221.4 170.96 1218.48 160.14 1205.23 165.99"/><polygon class="dj" points="1212.06 172.92 1198.63 196.18 1203.35 199.28 1211.06 193.29 1215.57 196.76 1212.52 202.19 1227.42 195.61 1221.4 170.96 1212.06 172.92"/><polygon class="bg" points="1203.44 204.21 1206.1 211.13 1207.91 204.93 1203.44 204.21"/><polygon class="dl" points="1183.75 248.43 1214.27 239.75 1207.91 227.79 1183.75 248.43"/><polygon class="dl" points="1183.75 248.43 1183.96 300.75 1162.05 297.96 1168.59 229.78 1174.28 228.48 1180.39 223.43 1183.75 248.43"/><polygon class="dm" points="1180.39 223.44 1168.59 229.78 1183.75 248.43 1180.39 223.44"/><rect class="dn" x="1175.42" y="255.34" width="4.42" height="4.42" transform="translate(162.76 908.08) rotate(-45)"/><rect class="dn" x="1175.42" y="286.42" width="4.42" height="4.42" transform="translate(140.79 917.18) rotate(-45)"/><rect class="do" x="1195.29" y="251.58" width="13.6" height="3.35" transform="translate(490.93 1254.96) rotate(-66.52)"/><rect class="ay" x="1197.88" y="253.6" width="2.85" height="11.72" transform="translate(845.32 1434.34) rotate(-85.44)"/><polygon class="cf" points="1219.18 232.46 1231.8 267.76 1222.11 264.91 1216.38 260.94 1219.18 232.46"/><polygon class="dp" points="1231.8 267.76 1217.01 287.4 1209.88 285.95 1205.23 279.59 1216.38 260.94 1231.8 267.76"/><polygon class="bb" points="1205.23 279.59 1211.57 295.05 1217.01 287.4 1205.23 279.59"/><polygon class="bv" points="1211.57 295.05 1216.48 300.75 1217.01 287.4 1211.57 295.05"/><circle class="aw" cx="1173.65" cy="182.14" r="1.95"/><circle class="aw" cx="1187.71" cy="185.36" r="1.95"/><polygon class="bg" points="1160.04 209.5 1188.3 214.98 1193.1 215.82 1189.46 227.79 1182.4 216.97 1160.04 209.5"/><polygon class="de" points="1195.2 326.17 1215.32 329.69 1214.67 345.41 1199.99 341.17 1195.2 326.17"/><polygon class="dg" points="1185.82 326.03 1168.36 316.99 1167.07 333.83 1179.54 338.29 1185.82 326.03"/><polygon class="bk" points="1127.09 273.31 1155.03 264.81 1179.92 272.8 1154.55 283.07 1127.09 273.31"/><polygon class="ab" points="1127.09 273.31 1134.35 279.12 1154.17 284.64 1155.41 283.05 1154.55 282.18 1127.09 273.31"/><polygon class="dq" points="1179.92 272.8 1176.28 276.82 1154.17 284.64 1154.55 282.18 1179.92 272.8"/><polygon class="dr" points="1152.13 277.38 1165.51 274.17 1168.87 269.25 1149.79 270.44 1152.13 277.38"/><polygon class="ds" points="1138.09 266.81 1142.81 274.17 1152.13 277.38 1151.08 271.73 1148.33 268.07 1138.09 266.81"/><polygon class="dt" points="1152.13 261.56 1150.24 266.16 1151.08 271.73 1168.87 269.25 1165.84 258.62 1152.13 261.56"/><polygon class="du" points="1142.81 257.57 1138.09 266.81 1151.08 271.73 1152.78 263.4 1150.94 259.82 1142.81 257.57"/><polygon class="dv" points="1142.81 257.57 1155.41 254.36 1165.84 258.62 1152.78 263.4 1142.81 257.57"/><polygon class="dw" points="1152.3 257.72 1153.64 256.47 1155.32 257.34 1153.64 258.44 1152.3 257.72"/><polygon class="dw" points="1150.62 259.54 1152.39 259.25 1153.54 260.11 1151.77 260.93 1150.62 259.54"/><polygon class="dw" points="1157.23 258.34 1158.09 257.72 1159.48 258.1 1158.47 259.3 1157.23 258.34"/><polygon class="dw" points="1143.73 263.13 1145.4 262.22 1145.93 263.65 1144.59 264.47 1143.73 263.13"/><polygon class="dw" points="1156.61 266 1157.52 265.47 1158.71 266.53 1156.75 267.72 1156.61 266"/><polygon class="dw" points="1161.25 262.6 1162.16 261.88 1163.36 262.89 1162.02 263.7 1161.25 262.6"/><polygon class="bx" points="921.36 262.3 924.94 271.94 910.44 270.09 921.36 262.3"/><polygon class="v" points="1023.07 300.56 985.44 308.57 936.9 305.91 903.47 316.04 872.72 318.5 847.57 311.26 836.53 307.77 907.18 291.57 1023.07 300.56"/><polygon class="bb" points="1009.94 294.41 1018.33 295.56 1023.07 300.56 1016.5 300.56 1009.94 294.41"/><polygon class="bb" points="981.76 287.6 1000.57 294.26 1001.09 297.49 999.57 300.18 976.64 300.56 977.78 291.44 981.76 287.6"/><polygon class="ba" points="1000.57 294.26 1006.83 289.58 1016.5 300.56 999.57 300.18 1000.57 294.26"/><polygon class="bg" points="976.64 300.56 981.76 287.6 976.64 285.68 976.64 300.56"/><polygon class="bb" points="866.27 311.26 851.04 285.16 851.94 281.58 855.52 277.55 880.1 306.61 866.27 311.26"/><polygon class="ba" points="890.05 290.75 874.96 314.8 866.27 311.26 877.03 284.3 889.98 284.3 890.05 290.75"/><polygon class="bg" points="855.52 277.55 849.77 276.02 842.57 275.28 840.54 275.28 836.47 277 851.04 285.16 855.52 277.55"/><polygon class="bb" points="842.57 275.28 844.61 267.28 836.47 277 842.57 275.28"/><polygon class="bg" points="991.73 262.01 991.73 269.17 982.47 264.59 991.73 262.01"/><polygon class="ba" points="959.44 301.52 960.4 291.52 965.73 280.9 973.2 256.4 977.78 262.3 977.59 268.19 976.64 300.56 959.44 301.52"/><polygon class="bb" points="991.73 262.01 973.2 256.4 977.59 268.19 991.73 262.01"/><polygon class="dx" points="948.93 270.81 965.73 280.9 959.44 301.52 944.73 304.38 944.73 288.36 948.93 270.81"/><polygon class="dy" points="935.75 280.9 948.93 270.81 944.73 304.38 936.9 305.91 934.99 293.42 935.75 280.9"/><polygon class="dz" points="916.67 273.05 919.95 287.78 919.95 301.52 904.37 310.14 908.43 272.91 916.67 273.05"/><polygon class="ea" points="916.67 273.05 919.95 301.52 936.9 305.91 935.75 280.9 924.94 271.94 920.58 270.56 916.67 273.05"/><polygon class="bg" points="859.03 278.16 882.61 279.98 887.26 287.78 859.03 278.16"/><polygon class="bw" points="839.45 237.63 836.03 245.26 846.65 250.15 850.51 237.02 839.45 237.63"/><polygon class="bs" points="851 223.42 836.47 232.44 846.65 250.15 853.7 232.81 851 223.42"/><polygon class="dj" points="836.47 232.44 848.5 238.78 852.76 245.58 846.65 250.15 836.47 232.44"/><polygon class="eb" points="850.21 243.13 840.86 253.21 847.47 260.03 848.26 255.15 846.52 253.32 849 250.59 850.84 248.46 850.21 243.13"/><polygon class="ba" points="889.98 266.72 881.36 279.48 880.37 279.41 870.16 279.98 859.03 278.16 842.57 275.28 850.45 226.76 881.02 249.39 889.98 266.72"/><polygon class="bb" points="875.27 258.91 870.16 279.98 881.36 281.5 894.44 295.42 896.77 269.59 883.5 251.65 875.27 258.91"/><polygon class="bb" points="857 239.67 857.87 241.52 856.13 252.18 851.04 239.54 854.08 238.6 857 239.67"/><polygon class="bb" points="861.41 242.08 864.85 240.77 872.02 244.23 863.57 250.06 859.53 256.54 861.41 242.08"/><polygon class="bg" points="878.61 268.76 894.93 276.02 895.07 270.81 886.84 256.59 877.95 258.83 878.61 268.76"/><polygon class="bj" points="861.41 242.08 857.87 241.52 855.52 255.87 857.52 257.21 859.53 256.54 861.41 242.08"/><polygon class="bg" points="859.53 256.54 857.05 258.62 855.52 255.87 859.53 256.54"/><polygon class="bg" points="850.45 226.76 874.75 260.74 880.83 263.41 881.36 257.02 864.85 240.77 851 223.42 850.45 226.76"/><circle class="aw" cx="852.76" cy="245.54" r="2.12"/><circle class="aw" cx="865.78" cy="247.98" r="2.12"/><polygon class="bs" points="914.96 268.78 924.94 271.94 909.86 273.96 886.07 256.48 914.96 268.78"/><polygon class="dj" points="903.17 246.01 929.87 253.68 909.86 273.96 901.82 276.24 889.98 266.72 887.64 263.84 876.54 255.91 903.17 246.01"/><polygon class="bx" points="905.14 252.47 929.87 253.68 904.27 245.6 903.47 248.32 905.14 252.47"/><polygon class="bs" points="874.96 217.46 901.12 220.76 905.14 252.47 889.07 235.45 874.96 217.46"/><polygon class="ec" points="857.11 235.66 851.04 239.54 857 239.67 857.11 235.66"/><polygon class="eb" points="870.06 264 856.91 259.65 847.57 261.02 854.83 273.96 870.06 264"/><polygon class="dj" points="857.52 264.59 852.28 265.67 854.15 269.09 857.78 269.59 861.89 266.94 857.52 264.59"/><polygon class="l" points="861.89 266.94 852.28 265.67 850.41 262.25 865.99 264.28 861.89 266.94"/><polygon class="ca" points="880.1 258.77 878.61 268.76 895.07 270.81 892.12 266.68 883 265.42 883.61 260.83 880.1 258.77"/><polygon class="bw" points="896.34 257.25 901.82 276.24 880.1 258.77 896.34 257.25"/><polygon class="ea" points="895.07 270.81 890.05 290.75 894.44 295.42 896.77 278.98 895.07 270.81"/><polygon class="bb" points="894.24 303.16 867.65 308.46 865.9 310.63 866.27 314.23 893.91 316.04 895.07 309.1 894.24 303.16"/><polygon class="ba" points="895.07 270.81 909.86 273.96 903.47 316.04 893.91 316.04 895.07 270.81"/><polygon class="ba" points="867.65 308.46 861.07 302.35 857.11 309.6 857.11 313.97 866.27 314.23 867.65 308.46"/><polygon class="bb" points="861.07 302.35 847.57 311.26 857.11 313.97 861.07 302.35"/><polygon class="bs" points="846.97 217.52 875.27 258.91 909.86 257.94 880.71 237.63 846.97 217.52"/><polygon class="ed" points="846.97 217.52 867.2 208.46 909.86 257.94 846.97 217.52"/><polygon class="ee" points="710.55 239.85 697.09 232.48 697.09 244.03 705.51 245.13 710.55 239.85"/><polygon class="ed" points="706.09 240.58 721.25 241.33 713.23 230.05 697.09 232.48 706.09 240.58"/><polygon class="v" points="729 264.81 748.15 266.41 754.22 259.46 756.62 263.44 772.16 264.27 790.22 252.88 788.75 246.6 798.29 243.13 771.12 231.62 697.09 244.03 704.6 252.22 729 264.81"/><polygon class="ee" points="762.93 251.28 744.15 249.31 744.15 252.22 745.2 254.78 756.62 263.44 762.93 251.28"/><polygon class="dj" points="758.33 252.22 768.44 247.43 780.05 247.78 781.69 253.65 756.62 263.44 758.33 252.22"/><polygon class="dj" points="745.2 261.88 745.2 254.78 737.14 254.11 729.09 254.78 729 264.81 745.2 261.88"/><polygon class="dj" points="706.09 240.58 720.6 244.61 734.04 250.55 729.09 254.78 704.6 252.22 706.09 240.58"/><polygon class="dj" points="777.81 245.06 788.75 246.6 790.51 237.22 782.49 237.22 776.76 239.65 777.81 245.06"/><polygon class="bx" points="744.15 249.31 762.28 240.3 776.76 239.65 780.05 247.78 758.33 252.22 744.15 249.31"/><polygon class="bx" points="739.5 245.7 717.07 238.77 706.09 240.58 733.45 250.33 736.09 248.79 739.5 245.7"/><polygon class="ed" points="744.15 249.31 745.2 254.78 729.09 254.78 737.1 246.6 744.15 249.31"/><polygon class="ed" points="776.76 239.65 779.42 230.69 790.51 237.22 776.76 239.65"/><polygon class="dy" points="717.07 238.77 713.55 229.86 706.09 221.48 722.83 207.71 745.57 218.99 772.75 191.1 790.22 212.34 778.61 230.69 776.76 239.65 761.76 244.09 744.38 247.04 731.52 244.39 717.07 238.77"/><polyline class="dx" points="782.09 186.78 745.57 218.99 722.83 207.71 716.91 184.78 731.52 178.43 748.15 176.38 762.93 168.49 782.09 186.78"/><polygon class="ef" points="735.53 195.28 745.2 203.33 758.73 195.75 747.45 182.24 735.53 195.28"/><polygon class="dx" points="706.09 221.48 722.87 228.26 717.07 238.77 706.09 221.48"/><polygon class="dx" points="771.12 231.62 790.22 212.34 776.76 239.65 771.12 231.62"/><polygon class="dy" points="731.52 171.5 743.21 174.98 747.45 182.24 744.61 190.24 735.53 195.28 716.91 184.78 731.52 171.5"/><polyline class="eg" points="782.09 186.78 765.78 204.15 756.21 196.71 782.09 186.78"/><polygon class="eg" points="745.2 203.33 722.83 207.71 734.61 217.55 745.2 203.33"/><polygon class="ef" points="731.52 244.39 722.87 228.26 745.2 203.33 735.53 195.28 747.45 182.24 770.16 209.44 761.1 219.42 771.12 231.62 761.76 244.09 744.15 249.31 731.52 244.39"/><polygon class="eh" points="761.1 219.42 745.2 203.33 734.04 230.19 744.15 249.31 761.1 219.42"/><polygon class="eb" points="734.61 237.24 740.05 232.97 751.23 244.3 741.95 245.13 734.61 237.24"/><polygon class="eb" points="741.05 229.73 745.25 233.89 749.34 231.04 745.99 224.23 741.05 229.73"/><polygon class="eb" points="747.45 235.79 755.36 229.55 759.46 234.54 749.5 240.3 747.45 235.79"/><polygon class="eg" points="728.17 165.73 752.72 164.61 762.93 168.49 747.45 182.24 731.52 171.5 728.17 165.73"/><polygon class="dy" points="728.17 165.73 747.22 159.76 762.93 159.12 766.27 164.36 762.93 168.49 728.17 165.73"/><polygon class="dx" points="728.17 165.73 743.21 155.82 754.11 154.28 762.93 159.12 728.17 165.73"/><polygon class="eg" points="743.21 155.82 753.49 142.85 762.93 159.12 743.21 155.82"/><polygon class="v" points="256.39 228.47 266.77 231.71 260.81 238.38 238.99 248.35 208.46 235.73 219.89 228.55 229.59 222.41 256.39 228.47"/><polygon class="bc" points="219.81 227.63 213.16 226.8 211.73 220.61 215.12 225.37 220.43 224 219.81 227.63"/><polygon class="bd" points="213.16 226.8 220.66 226.73 219.89 228.55 213.16 226.8"/><polygon class="bc" points="231.19 231.23 229.37 234.61 222.99 234.18 224.3 238.83 218 238.52 219.89 228.55 225.58 229.29 231.19 231.23"/><polygon class="bd" points="229.37 234.61 220.75 232.1 224.3 238.83 223.98 235.02 229.37 234.61"/><polygon class="bc" points="255.62 227.6 260.69 233.37 255.19 234.97 253.46 231.08 255.62 227.6"/><polygon class="bh" points="219.06 218.4 227.31 211.94 232.19 204.22 244.54 205.21 252.64 204.26 262.25 215.86 256.2 219.74 251.87 224.14 241.13 226.87 231.19 231.23 225.58 229.29 219.89 228.55 219.06 218.4"/><polygon class="bk" points="232.19 204.22 242.28 213.17 252.64 204.26 232.19 204.22"/><polygon class="bi" points="242.28 213.17 227.74 217.11 231.19 231.23 251.87 224.14 242.28 213.17"/><polygon class="bi" points="227.74 217.11 232.19 204.22 219.06 218.4 227.74 217.11"/><polygon class="ei" points="262.25 215.86 271.17 213.74 276.33 218.91 274.28 221.94 273.77 224.16 265.19 223.54 251.87 224.14 262.25 215.86"/><polygon class="bd" points="260.23 223.44 254.04 231.17 231.19 231.23 251.87 224.14 260.23 223.44"/><polygon class="ej" points="251.87 224.14 256.61 239.48 250.99 241.19 249.25 235.46 247.82 225.53 251.87 224.14"/><polygon class="bc" points="247.82 225.53 250.99 241.19 248.41 240.63 247.82 225.53"/><circle class="as" cx="269.87" cy="218.39" r="1.11"/><polygon class="bc" points="256.35 220.57 269.25 221.76 276.33 218.91 273.77 224.16 251.87 224.14 256.35 220.57"/><polygon class="bd" points="262.25 215.86 255.43 225.22 251.87 224.14 262.25 215.86"/><polygon class="bk" points="260.39 213.61 249.79 221.76 251.87 224.14 262.25 215.86 260.39 213.61"/><polygon class="ab" points="249.79 221.76 230.33 227.53 231.19 231.23 251.87 224.14 249.79 221.76"/><polygon class="bk" points="230.33 227.53 219.54 224.23 219.89 228.55 231.19 231.23 230.33 227.53"/><polygon class="bd" points="251.87 224.14 247.16 227.31 246.37 226.03 251.87 224.14"/></svg>