<svg id="SvgjsSvg1069" width="562" height="154" xmlns="http://www.w3.org/2000/svg" version="1.1" xmlns:xlink="http://www.w3.org/1999/xlink" xmlns:svgjs="http://svgjs.com/svgjs"><defs id="SvgjsDefs1070"><pattern patternUnits="userSpaceOnUse" id="pattern_mark_0" width="300" height="300"><text x="150" y="100" fill="rgba(229,229,229,0.8)" font-size="18" transform="rotate(-45, 150, 150)" style="dominant-baseline: middle; text-anchor: middle;"></text></pattern><pattern patternUnits="userSpaceOnUse" id="pattern_mark_1" width="300" height="300"><text x="150" y="200" fill="rgba(229,229,229,0.8)" font-size="18" transform="rotate(-45, 150, 150)" style="dominant-baseline: middle; text-anchor: middle;"></text></pattern></defs><rect id="svgbackgroundid" width="562" height="154" fill="#ffffff"></rect><rect id="SvgjsRect1072" width="562" height="154" fill="url(#pattern_mark_0)"></rect><rect id="SvgjsRect1073" width="562" height="154" fill="url(#pattern_mark_1)"></rect><g id="SvgjsG1074"><path id="SvgjsPath1075" d="M25 55L280.75 55L280.75 55L536.5 55" stroke="#e4e4e4" stroke-width="8" fill="none"></path></g><g id="SvgjsG1076" transform="translate(75,45)"><path id="SvgjsPath1077" d="M 0 10C 0 -3.3333333333333335 20 -3.3333333333333335 20 10C 20 23.333333333333332 0 23.333333333333332 0 10Z" stroke="rgba(201,15,27,1)" stroke-width="2" fill-opacity="1" fill="#c90f1b"></path><g id="SvgjsG1078"><text id="SvgjsText1079" font-family="微软雅黑" text-anchor="middle" font-size="13px" width="0px" fill="#323232" font-weight="400" align="middle" lineHeight="125%" anchor="middle" family="微软雅黑" size="13px" weight="400" font-style="" opacity="1" y="-0.625" transform="rotate(0)"></text></g></g><g id="SvgjsG1080"><path id="SvgjsPath1081" d="M85 66L85 98.25000000000023" stroke="#e4e4e4" stroke-width="5" fill="none"></path></g><g id="SvgjsG1082" transform="translate(35,99.00000000000023)"><path id="SvgjsPath1083" d="M 0 0L 100 0L 100 20L 0 20Z" stroke="none" fill="none"></path><g id="SvgjsG1084"><text id="SvgjsText1085" font-family="微软雅黑" text-anchor="middle" font-size="13px" width="100px" fill="#323232" font-weight="400" align="middle" lineHeight="125%" anchor="middle" family="微软雅黑" size="13px" weight="400" font-style="" opacity="1" y="-0.625" transform="rotate(0)"><tspan id="SvgjsTspan1086" dy="16.25" x="50"><tspan id="SvgjsTspan1087" style="">2020</tspan></tspan></text></g></g><g id="SvgjsG1088" transform="translate(278.625,45)"><path id="SvgjsPath1089" d="M 0 10C 0 -3.3333333333333335 20 -3.3333333333333335 20 10C 20 23.333333333333332 0 23.333333333333332 0 10Z" stroke="rgba(149,0,0,1)" stroke-width="2" fill-opacity="1" fill="#950000"></path><g id="SvgjsG1090"><text id="SvgjsText1091" font-family="微软雅黑" text-anchor="middle" font-size="13px" width="0px" fill="#323232" font-weight="400" align="middle" lineHeight="125%" anchor="middle" family="微软雅黑" size="13px" weight="400" font-style="" opacity="1" y="-0.625" transform="rotate(0)"></text></g></g><g id="SvgjsG1092"><path id="SvgjsPath1093" d="M96 55L186.8125 55L186.8125 55L277.625 55" stroke="#c90f1b" stroke-width="10" fill="none"></path></g><g id="SvgjsG1094"><path id="SvgjsPath1095" d="M288.625 66L288.625 98.25000000000023" stroke="#e4e4e4" stroke-width="5" fill="none"></path></g><g id="SvgjsG1096" transform="translate(238.625,89.00000000000023)"><path id="SvgjsPath1097" d="M 0 0L 100 0L 100 40L 0 40Z" stroke="none" fill="none"></path><g id="SvgjsG1098"><text id="SvgjsText1099" font-family="微软雅黑" text-anchor="middle" font-size="13px" width="100px" fill="#323232" font-weight="400" align="middle" lineHeight="125%" anchor="middle" family="微软雅黑" size="13px" weight="400" font-style="" opacity="1" y="9.375" transform="rotate(0)"><tspan id="SvgjsTspan1100" dy="16.25" x="50"><tspan id="SvgjsTspan1101" style="">2024</tspan></tspan></text></g></g><g id="SvgjsG1102" transform="translate(138.625,25)"><path id="SvgjsPath1103" d="M 0 0L 100 0L 100 20L 0 20Z" stroke="none" fill="none"></path><g id="SvgjsG1104"><text id="SvgjsText1105" font-family="微软雅黑" text-anchor="middle" font-size="13px" width="100px" fill="#c90f1b" font-weight="400" align="middle" lineHeight="125%" anchor="middle" family="微软雅黑" size="13px" weight="400" font-style="" opacity="1" y="-0.625" transform="rotate(0)"><tspan id="SvgjsTspan1106" dy="16.25" x="50"><tspan id="SvgjsTspan1107" style="">HNU</tspan></tspan></text></g></g><g id="SvgjsG1108"><path id="SvgjsPath1109" d="M299.625 55L428 55" stroke="#950000" stroke-width="10" fill="none"></path></g><g id="SvgjsG1110" transform="translate(429,45)"><path id="SvgjsPath1111" d="M 0 10C 0 -3.3333333333333335 20 -3.3333333333333335 20 10C 20 23.333333333333332 0 23.333333333333332 0 10Z" stroke="rgba(149,0,0,1)" stroke-width="2" fill-opacity="1" fill="#950000"></path><g id="SvgjsG1112"><text id="SvgjsText1113" font-family="微软雅黑" text-anchor="middle" font-size="13px" width="0px" fill="#323232" font-weight="400" align="middle" lineHeight="125%" anchor="middle" family="微软雅黑" size="13px" weight="400" font-style="" opacity="1" y="-0.625" transform="rotate(0)"></text></g></g><g id="SvgjsG1114"><path id="SvgjsPath1115" d="M439 66L439 98.25000000000023" stroke="#e4e4e4" stroke-width="5" fill="none"></path></g><g id="SvgjsG1116" transform="translate(389,89.00000000000023)"><path id="SvgjsPath1117" d="M 0 0L 100 0L 100 40L 0 40Z" stroke="none" fill="none"></path><g id="SvgjsG1118"><text id="SvgjsText1119" font-family="微软雅黑" text-anchor="middle" font-size="13px" width="100px" fill="#323232" font-weight="400" align="middle" lineHeight="125%" anchor="middle" family="微软雅黑" size="13px" weight="400" font-style="" opacity="1" y="9.375" transform="rotate(0)"><tspan id="SvgjsTspan1120" dy="16.25" x="50"><tspan id="SvgjsTspan1121" style="">现在</tspan></tspan></text></g></g><g id="SvgjsG1122" transform="translate(313.8125,25)"><path id="SvgjsPath1123" d="M 0 0L 100 0L 100 20L 0 20Z" stroke="none" fill="none"></path><g id="SvgjsG1124"><text id="SvgjsText1125" font-family="微软雅黑" text-anchor="middle" font-size="13px" width="100px" fill="#950000" font-weight="400" align="middle" lineHeight="125%" anchor="middle" family="微软雅黑" size="13px" weight="400" font-style="" opacity="1" y="-0.625" transform="rotate(0)"><tspan id="SvgjsTspan1126" dy="16.25" x="50"><tspan id="SvgjsTspan1127" style="">PKU</tspan></tspan></text></g></g></svg>